<svg width="27" height="27" viewBox="0 0 27 27" fill="none" xmlns="http://www.w3.org/2000/svg">
<path d="M13.5 4.21875C11.6643 4.21875 9.86991 4.76309 8.34362 5.78292C6.81732 6.80276 5.62772 8.25229 4.92525 9.94822C4.22277 11.6441 4.03897 13.5103 4.39709 15.3107C4.75521 17.1111 5.63916 18.7648 6.93717 20.0628C8.23518 21.3608 9.88894 22.2448 11.6893 22.6029C13.4897 22.961 15.3559 22.7772 17.0518 22.0748C18.7477 21.3723 20.1972 20.1827 21.2171 18.6564C22.2369 17.1301 22.7813 15.3357 22.7813 13.5C22.7813 11.0385 21.8034 8.67774 20.0628 6.93717C18.3223 5.19659 15.9615 4.21875 13.5 4.21875Z" stroke="#14BA9C" stroke-width="1.5" stroke-miterlimit="10"/>
<path d="M10.5469 10.668C10.5469 10.668 10.5912 9.74519 11.5789 8.95048C12.1648 8.47851 12.8672 8.34192 13.5 8.33243C14.0764 8.32505 14.5911 8.4205 14.899 8.5671C15.4264 8.81811 16.4531 9.43089 16.4531 10.734C16.4531 12.105 15.5566 12.7278 14.5352 13.4129C13.5137 14.0979 13.2363 14.8414 13.2363 15.6098" stroke="#14BA9C" stroke-width="1.5" stroke-miterlimit="10" stroke-linecap="round"/>
<path d="M13.4883 18.3516C13.4883 18.5198 13.3519 18.6562 13.1836 18.6562C13.0153 18.6562 12.8789 18.5198 12.8789 18.3516C12.8789 18.1833 13.0153 18.0469 13.1836 18.0469C13.3519 18.0469 13.4883 18.1833 13.4883 18.3516Z" fill="#FAFAFD" stroke="#14BA9C" stroke-width="1.5"/>
</svg>
