<svg width="28" height="28" viewBox="0 0 28 28" fill="none" xmlns="http://www.w3.org/2000/svg">
<path d="M2.3335 4.08398H25.6668M2.3335 13.4173H8.75016M2.3335 22.7506H8.75016" stroke="#14BA9C" stroke-width="3" stroke-linecap="round"/>
<path d="M18.3753 19.8346C19.6904 19.8346 20.9515 19.3122 21.8814 18.3824C22.8113 17.4525 23.3337 16.1913 23.3337 14.8763C23.3337 13.5613 22.8113 12.3001 21.8814 11.3702C20.9515 10.4404 19.6904 9.91797 18.3753 9.91797C17.0603 9.91797 15.7991 10.4404 14.8693 11.3702C13.9394 12.3001 13.417 13.5613 13.417 14.8763C13.417 16.1913 13.9394 17.4525 14.8693 18.3824C15.7991 19.3122 17.0603 19.8346 18.3753 19.8346Z" stroke="#14BA9C" stroke-width="3"/>
<path d="M21.5835 18.668L25.6668 22.7805" stroke="#14BA9C" stroke-width="3" stroke-linecap="round"/>
</svg>
