<svg width="23" height="23" viewBox="0 0 23 23" fill="none" xmlns="http://www.w3.org/2000/svg">
<path d="M11.161 0C5.02244 0 0 5.02875 0 11.1746C0 17.3205 5.02244 22.3492 11.161 22.3492C17.2995 22.3492 22.322 17.3205 22.322 11.1746C22.322 5.02875 17.2995 0 11.161 0ZM11.161 19.5556C6.55708 19.5556 2.79025 15.7842 2.79025 11.1746C2.79025 6.56505 6.55708 2.79357 11.161 2.79357C15.7649 2.79357 19.5317 6.56505 19.5317 11.1746C19.5317 15.7842 15.7649 19.5556 11.161 19.5556Z" fill="white"/>
<path d="M14.3695 7.40341L9.76556 12.013L7.81238 10.0575C7.25433 9.49875 6.41726 9.49875 5.85921 10.0575C5.30116 10.6162 5.30116 11.4543 5.85921 12.013L8.78897 14.9464C9.06799 15.2257 9.34702 15.3656 9.76556 15.3656C10.1841 15.3656 10.4631 15.2257 10.7421 14.9464L16.3226 9.35891C16.8807 8.80019 16.8807 7.96212 16.3226 7.40341C15.7646 6.8447 14.9275 6.8447 14.3695 7.40341Z" fill="white"/>
</svg>
