<svg width="25" height="23" viewBox="0 0 25 23" fill="none" xmlns="http://www.w3.org/2000/svg">
<path d="M12.3652 15.8212C14.2105 15.8212 15.7064 14.3252 15.7064 12.4799C15.7064 10.6346 14.2105 9.13867 12.3652 9.13867C10.5199 9.13867 9.02393 10.6346 9.02393 12.4799C9.02393 14.3252 10.5199 15.8212 12.3652 15.8212Z" stroke="#1E1E1E" stroke-width="1.5"/>
<path d="M9.89029 21.3893H14.8398C18.3158 21.3893 20.0544 21.3893 21.3029 20.5707C21.8417 20.2178 22.3057 19.7622 22.6683 19.2298C23.5025 18.0047 23.5025 16.2973 23.5025 12.8848C23.5025 9.47222 23.5025 7.76484 22.6683 6.53972C22.3057 6.00734 21.8417 5.55167 21.3029 5.19876C20.501 4.67196 19.4964 4.48374 17.9583 4.41691C17.2243 4.41691 16.5928 3.87118 16.4492 3.16394C16.3394 2.6459 16.0541 2.18166 15.6415 1.84966C15.229 1.51767 14.7144 1.33829 14.1849 1.34185H10.5452C9.44479 1.34185 8.49699 2.10477 8.28092 3.16394C8.13724 3.87118 7.50575 4.41691 6.77179 4.41691C5.23481 4.48374 4.23021 4.67307 3.4272 5.19876C2.88874 5.55178 2.42512 6.00745 2.06285 6.53972C1.22754 7.76484 1.22754 9.47111 1.22754 12.8848C1.22754 16.2984 1.22754 18.0035 2.06174 19.2298C2.42259 19.7599 2.88591 20.2155 3.4272 20.5707C4.67571 21.3893 6.41427 21.3893 9.89029 21.3893Z" stroke="#1E1E1E" stroke-width="1.5"/>
<path d="M20.1611 9.13867H19.0474" stroke="#1E1E1E" stroke-width="1.5" stroke-linecap="round"/>
</svg>
