<svg width="25" height="25" viewBox="0 0 25 25" fill="none" xmlns="http://www.w3.org/2000/svg">
<path d="M0.577148 4.71159C0.577148 3.60652 1.01614 2.54671 1.79754 1.76531C2.57894 0.983909 3.63875 0.544922 4.74382 0.544922H8.41048C8.6315 0.544922 8.84346 0.632719 8.99974 0.789C9.15602 0.94528 9.24382 1.15724 9.24382 1.37826C9.24382 1.59927 9.15602 1.81123 8.99974 1.96751C8.84346 2.12379 8.6315 2.21159 8.41048 2.21159H4.74382C4.08077 2.21159 3.44489 2.47498 2.97605 2.94382C2.50721 3.41266 2.24382 4.04855 2.24382 4.71159V8.37826C2.24382 8.59927 2.15602 8.81123 1.99974 8.96751C1.84346 9.12379 1.6315 9.21159 1.41048 9.21159C1.18947 9.21159 0.977506 9.12379 0.821226 8.96751C0.664946 8.81123 0.577148 8.59927 0.577148 8.37826V4.71159ZM15.9105 1.37826C15.9105 0.918255 16.2838 0.544922 16.7438 0.544922H20.4105C21.5156 0.544922 22.5754 0.983909 23.3568 1.76531C24.1382 2.54671 24.5771 3.60652 24.5771 4.71159V8.37826C24.5771 8.59927 24.4894 8.81123 24.3331 8.96751C24.1768 9.12379 23.9648 9.21159 23.7438 9.21159C23.5228 9.21159 23.3108 9.12379 23.1546 8.96751C22.9983 8.81123 22.9105 8.59927 22.9105 8.37826V4.71159C22.9105 4.04855 22.6471 3.41266 22.1782 2.94382C21.7094 2.47498 21.0735 2.21159 20.4105 2.21159H16.7438C16.2838 2.21159 15.9105 1.83826 15.9105 1.37826ZM1.41048 15.8783C1.87048 15.8783 2.24382 16.2516 2.24382 16.7116V20.3783C2.24382 21.0413 2.50721 21.6772 2.97605 22.146C3.44489 22.6149 4.08077 22.8783 4.74382 22.8783H8.41048C8.6315 22.8783 8.84346 22.9661 8.99974 23.1223C9.15602 23.2786 9.24382 23.4906 9.24382 23.7116C9.24382 23.9326 9.15602 24.1446 8.99974 24.3008C8.84346 24.4571 8.6315 24.5449 8.41048 24.5449H4.74382C3.63875 24.5449 2.57894 24.1059 1.79754 23.3245C1.01614 22.5431 0.577148 21.4833 0.577148 20.3783V16.7116C0.577148 16.2516 0.950482 15.8783 1.41048 15.8783ZM23.7438 15.8783C24.2038 15.8783 24.5771 16.2516 24.5771 16.7116V20.3783C24.5771 21.4833 24.1382 22.5431 23.3568 23.3245C22.5754 24.1059 21.5156 24.5449 20.4105 24.5449H16.7438C16.5228 24.5449 16.3108 24.4571 16.1546 24.3008C15.9983 24.1446 15.9105 23.9326 15.9105 23.7116C15.9105 23.4906 15.9983 23.2786 16.1546 23.1223C16.3108 22.9661 16.5228 22.8783 16.7438 22.8783H20.4105C21.0735 22.8783 21.7094 22.6149 22.1782 22.146C22.6471 21.6772 22.9105 21.0413 22.9105 20.3783V16.7116C22.9105 16.2516 23.2838 15.8783 23.7438 15.8783ZM14.5771 12.8783C14.5771 12.3478 14.3664 11.8391 13.9914 11.464C13.6163 11.089 13.1076 10.8783 12.5771 10.8783C12.0467 10.8783 11.538 11.089 11.1629 11.464C10.7879 11.8391 10.5771 12.3478 10.5771 12.8783C10.5771 13.4087 10.7879 13.9174 11.1629 14.2925C11.538 14.6675 12.0467 14.8783 12.5771 14.8783C13.1076 14.8783 13.6163 14.6675 13.9914 14.2925C14.3664 13.9174 14.5771 13.4087 14.5771 12.8783ZM15.1538 6.95359C15.0214 6.72826 14.8324 6.54144 14.6055 6.41164C14.3787 6.28184 14.1218 6.21357 13.8605 6.21359H11.3251C11.0687 6.21366 10.8166 6.27945 10.5929 6.40468C10.3692 6.52991 10.1813 6.7104 10.0471 6.92892L9.46382 7.87826H8.07715C7.50251 7.87826 6.95141 8.10653 6.54508 8.51286C6.13876 8.91919 5.91048 9.47029 5.91048 10.0449V16.3783C5.91048 16.9529 6.13876 17.504 6.54508 17.9103C6.95141 18.3166 7.50251 18.5449 8.07715 18.5449H17.0771C17.6518 18.5449 18.2029 18.3166 18.6092 17.9103C19.0155 17.504 19.2438 16.9529 19.2438 16.3783V10.0449C19.2438 9.47029 19.0155 8.91919 18.6092 8.51286C18.2029 8.10653 17.6518 7.87826 17.0771 7.87826H15.6971L15.1538 6.95359ZM9.57715 12.8783C9.57715 12.0826 9.89322 11.3195 10.4558 10.7569C11.0184 10.1943 11.7815 9.87826 12.5771 9.87826C13.3728 9.87826 14.1359 10.1943 14.6985 10.7569C15.2611 11.3195 15.5771 12.0826 15.5771 12.8783C15.5771 13.6739 15.2611 14.437 14.6985 14.9996C14.1359 15.5622 13.3728 15.8783 12.5771 15.8783C11.7815 15.8783 11.0184 15.5622 10.4558 14.9996C9.89322 14.437 9.57715 13.6739 9.57715 12.8783Z" fill="white"/>
</svg>
