<svg width="18" height="22" viewBox="0 0 18 22" fill="none" xmlns="http://www.w3.org/2000/svg">
<rect x="0.5" y="0.5" width="16.3334" height="20.6667" rx="1.5" stroke="#14BA9C"/>
<g clip-path="url(#clip0_195_2337)">
<path fill-rule="evenodd" clip-rule="evenodd" d="M9.66659 5.6237C9.66659 5.93312 9.54367 6.22986 9.32488 6.44866C9.10608 6.66745 8.80934 6.79036 8.49992 6.79036C8.1905 6.79036 7.89375 6.66745 7.67496 6.44866C7.45617 6.22986 7.33325 5.93312 7.33325 5.6237C7.33325 5.31428 7.45617 5.01753 7.67496 4.79874C7.89375 4.57995 8.1905 4.45703 8.49992 4.45703C8.80934 4.45703 9.10608 4.57995 9.32488 4.79874C9.54367 5.01753 9.66659 5.31428 9.66659 5.6237ZM9.08325 5.6237C9.08325 5.77841 9.02179 5.92678 8.9124 6.03618C8.803 6.14557 8.65463 6.20703 8.49992 6.20703C8.34521 6.20703 8.19684 6.14557 8.08744 6.03618C7.97804 5.92678 7.91659 5.77841 7.91659 5.6237C7.91659 5.46899 7.97804 5.32062 8.08744 5.21122C8.19684 5.10182 8.34521 5.04036 8.49992 5.04036C8.65463 5.04036 8.803 5.10182 8.9124 5.21122C9.02179 5.32062 9.08325 5.46899 9.08325 5.6237Z" fill="#14BA9C"/>
<path d="M6.43194 8.03393C6.67536 7.73 6.98248 7.48275 7.33195 7.30979C7.70097 7.12717 8.10722 7.03233 8.51896 7.03268L8.51892 7.08268L8.51887 7.03268C8.92528 7.0323 9.32642 7.12468 9.69173 7.3028C10.0374 7.47135 10.3424 7.71246 10.586 8.0094C10.8128 7.69599 10.9662 7.33523 11.0346 6.95387C11.1067 6.55142 11.0819 6.13758 10.9624 5.74659C10.8428 5.35561 10.6318 4.99872 10.3469 4.70545C10.0621 4.41218 9.71143 4.19097 9.32407 4.06012C8.93671 3.92926 8.52376 3.89253 8.11939 3.95296C7.71502 4.01339 7.33085 4.16924 6.99867 4.40761C6.66649 4.64599 6.39584 4.96004 6.20913 5.32378C6.02242 5.68752 5.92501 6.09049 5.92496 6.49935L6.43194 8.03393ZM6.43194 8.03393C6.11351 7.60529 5.92496 7.07433 5.92496 6.49936L6.43194 8.03393ZM8.50003 9.07435L8.49988 9.07435C7.92448 9.07521 7.36599 8.88254 6.9139 8.52806C7.09403 8.28271 7.3282 8.08177 7.59853 7.94098C7.88272 7.79296 8.19846 7.71579 8.51888 7.71602H8.51896C8.83538 7.71576 9.1473 7.79101 9.42881 7.9355C9.69642 8.07285 9.92921 8.26902 10.1098 8.50904C9.65386 8.87539 9.08588 9.07517 8.50003 9.07435ZM8.51892 7.66602C8.8433 7.66576 9.16306 7.74289 9.45165 7.89101C9.74023 8.03914 9.98932 8.25397 10.1782 8.51768C9.70725 8.91047 9.11321 9.12521 8.49996 9.12435L8.51892 7.66602ZM8.49996 3.24102C6.70047 3.24102 5.24163 4.69986 5.24163 6.49935C5.24163 8.29884 6.70047 9.75768 8.49996 9.75768C10.2994 9.75768 11.7583 8.29884 11.7583 6.49935C11.7583 4.69986 10.2994 3.24102 8.49996 3.24102Z" fill="#14BA9C" stroke="#14BA9C" stroke-width="0.1"/>
</g>
<rect x="4.33301" y="12.916" width="8.6667" height="1.08334" rx="0.541669" fill="#14BA9C"/>
<rect x="4.33301" y="15.6836" width="8.6667" height="1.08334" rx="0.541669" fill="#14BA9C"/>
<defs>
<clipPath id="clip0_195_2337">
<rect width="7" height="7" fill="white" transform="translate(5 3)"/>
</clipPath>
</defs>
</svg>
