<svg width="408" height="244" viewBox="0 0 408 244" fill="none" xmlns="http://www.w3.org/2000/svg">
<g opacity="0.5" clip-path="url(#clip0_123_749)">
<path opacity="0.3" d="M388.472 106.296V78.975H372.25V106.296H353.04V64.0338H338.952V32.4438H327.426V0H303.52V32.4438H291.994V64.0338H278.334V26.0404H270.65V6.83027H265.954V26.0404H238.633V147.278H217.715V134.471H204.908V147.278H183.99V106.296H146.424V78.975H130.202V106.296H129.348V158.804H112.273V128.068H91.7818V158.804H74.7061V64.0338H61.4724V32.4438H12.8068V64.0338H0V230.949H74.7061H129.348H183.99H238.633H278.334H353.04H407.682V106.296H388.472Z" fill="#14BA9C"/>
<path opacity="0.4" d="M26.0403 73.8525H8.11084V84.0979H26.0403V73.8525Z" fill="white"/>
<path opacity="0.4" d="M48.239 84.0977H66.1685V73.8522H48.239V84.0977Z" fill="white"/>
<path opacity="0.4" d="M26.0403 93.916H8.11084V104.161H26.0403V93.916Z" fill="white"/>
<path opacity="0.4" d="M48.239 104.162H66.1685V93.9167H48.239V104.162Z" fill="white"/>
<path opacity="0.4" d="M26.0403 113.98H8.11084V124.226H26.0403V113.98Z" fill="white"/>
<path opacity="0.4" d="M48.239 124.226H66.1685V113.98H48.239V124.226Z" fill="white"/>
<path opacity="0.4" d="M26.0403 134.044H8.11084V144.289H26.0403V134.044Z" fill="white"/>
<path opacity="0.4" d="M48.239 144.289H66.1685V134.044H48.239V144.289Z" fill="white"/>
<path opacity="0.4" d="M26.0403 154.108H8.11084V164.354H26.0403V154.108Z" fill="white"/>
<path opacity="0.4" d="M48.239 164.354H66.1685V154.108H48.239V164.354Z" fill="white"/>
<path opacity="0.4" d="M26.0403 174.172H8.11084V184.417H26.0403V174.172Z" fill="white"/>
<path opacity="0.4" d="M48.239 184.417H66.1685V174.172H48.239V184.417Z" fill="white"/>
<path opacity="0.4" d="M26.0403 194.235H8.11084V204.481H26.0403V194.235Z" fill="white"/>
<path opacity="0.4" d="M48.239 204.481H66.1685V194.236H48.239V204.481Z" fill="white"/>
<path opacity="0.4" d="M122.945 169.049H81.1094V174.172H122.945V169.049Z" fill="white"/>
<path opacity="0.4" d="M122.945 176.733H81.1094V181.856H122.945V176.733Z" fill="white"/>
<path opacity="0.4" d="M122.945 184.417H81.1094V189.54H122.945V184.417Z" fill="white"/>
<path opacity="0.4" d="M232.229 171.61H190.394V176.733H232.229V171.61Z" fill="white"/>
<path opacity="0.4" d="M232.229 179.295H190.394V184.418H232.229V179.295Z" fill="white"/>
<path opacity="0.4" d="M232.229 186.979H190.394V192.101H232.229V186.979Z" fill="white"/>
<path opacity="0.4" d="M122.945 192.102H81.1094V197.224H122.945V192.102Z" fill="white"/>
<path opacity="0.4" d="M122.945 199.785H81.1094V204.908H122.945V199.785Z" fill="white"/>
<path opacity="0.4" d="M122.945 207.47H81.1094V212.592H122.945V207.47Z" fill="white"/>
<path opacity="0.4" d="M149.839 116.114H138.313V131.055H149.839V116.114Z" fill="white"/>
<path opacity="0.4" d="M163.5 131.056H175.026V116.114H163.5V131.056Z" fill="white"/>
<path opacity="0.4" d="M149.839 140.021H138.313V154.962H149.839V140.021Z" fill="white"/>
<path opacity="0.4" d="M163.5 154.962H175.026V140.021H163.5V154.962Z" fill="white"/>
<path opacity="0.4" d="M149.839 163.927H138.313V178.868H149.839V163.927Z" fill="white"/>
<path opacity="0.4" d="M163.5 178.868H175.026V163.927H163.5V178.868Z" fill="white"/>
<path opacity="0.4" d="M149.839 187.832H138.313V202.773H149.839V187.832Z" fill="white"/>
<path opacity="0.4" d="M163.5 202.773H175.026V187.832H163.5V202.773Z" fill="white"/>
<path opacity="0.4" d="M254.001 35.8594H238.633V55.4964H254.001V35.8594Z" fill="white"/>
<path opacity="0.4" d="M254.001 64.0342H238.633V83.6712H254.001V64.0342Z" fill="white"/>
<path opacity="0.4" d="M254.001 92.209H238.633V111.846H254.001V92.209Z" fill="white"/>
<path opacity="0.4" d="M254.001 120.384H238.633V140.021H254.001V120.384Z" fill="white"/>
<path opacity="0.4" d="M254.001 148.559H238.633V168.196H254.001V148.559Z" fill="white"/>
<path opacity="0.4" d="M254.001 176.733H238.633V196.37H254.001V176.733Z" fill="white"/>
<path opacity="0.4" d="M344.288 75.9863H287.085V92.6351H344.288V75.9863Z" fill="white"/>
<path opacity="0.4" d="M344.502 111.846H287.298V128.494H344.502V111.846Z" fill="white"/>
<path opacity="0.4" d="M344.715 147.705H287.512V164.354H344.715V147.705Z" fill="white"/>
<path opacity="0.4" d="M344.929 183.563H287.725V200.212H344.929V183.563Z" fill="white"/>
<path opacity="0.4" d="M20.4907 41.4082H12.8066V57.6301H20.4907V41.4082Z" fill="white"/>
<path opacity="0.4" d="M407.682 116.114H388.472V140.874H407.682V116.114Z" fill="white"/>
<path opacity="0.4" d="M407.682 151.974H388.472V176.733H407.682V151.974Z" fill="white"/>
<path opacity="0.4" d="M407.682 187.832H388.472V212.592H407.682V187.832Z" fill="white"/>
<path d="M21.2035 204.716C21.2035 204.716 -12.4057 224.994 49.5492 256.212C49.5492 256.212 63.2097 230.872 48.1063 210.21C45.177 206.183 40.8724 203.37 36.0078 202.304C31.1433 201.238 26.0566 201.993 21.7115 204.426L21.2035 204.716Z" fill="#14BA9C"/>
<path d="M21.5923 204.289C21.5923 204.289 50.352 226.295 49.5494 256.212" stroke="#535461" stroke-width="0.426892" stroke-miterlimit="10"/>
<path d="M51.112 257.364C51.112 257.364 40.5806 221.608 53.0885 195.29C58.3393 184.246 60.081 171.845 57.6563 159.858C56.4968 154.166 54.8178 148.594 52.6403 143.209" stroke="#535461" stroke-width="0.853784" stroke-miterlimit="10"/>
<path d="M60.4052 126.599C60.4052 130.984 52.4693 143.675 52.4693 143.675C52.4693 143.675 44.5334 130.967 44.5334 126.599C44.5089 125.542 44.6959 124.49 45.0836 123.506C45.4713 122.522 46.0518 121.626 46.7909 120.869C47.5301 120.113 48.413 119.512 49.3878 119.101C50.3625 118.691 51.4095 118.479 52.4672 118.479C53.5248 118.479 54.5718 118.691 55.5466 119.101C56.5214 119.512 57.4043 120.113 58.1434 120.869C58.8826 121.626 59.463 122.522 59.8507 123.506C60.2384 124.49 60.4255 125.542 60.401 126.599H60.4052Z" fill="#14BA9C"/>
<path d="M73.5366 150.873C71.1545 154.552 57.5879 160.905 57.5879 160.905C57.5879 160.905 57.8355 145.925 60.2175 142.245C61.386 140.536 63.1759 139.351 65.2056 138.944C67.2352 138.536 69.3439 138.937 71.0817 140.062C72.8195 141.188 74.0488 142.947 74.5074 144.966C74.9661 146.985 74.6177 149.103 73.5366 150.868V150.873Z" fill="#14BA9C"/>
<path d="M72.9601 192.353C69.0455 194.326 54.1299 192.964 54.1299 192.964C54.1299 192.964 61.9036 180.157 65.8182 178.185C67.6912 177.286 69.8419 177.158 71.8083 177.828C73.7748 178.498 75.4003 179.912 76.3358 181.766C77.2713 183.621 77.4422 185.769 76.8118 187.748C76.1815 189.728 74.8001 191.381 72.9644 192.353H72.9601Z" fill="#14BA9C"/>
<path d="M65.4598 223.641C61.9379 226.245 47.001 227.423 47.001 227.423C47.001 227.423 52.4993 213.489 56.0212 210.881C56.8583 210.251 57.8118 209.794 58.8267 209.534C59.8416 209.275 60.8978 209.219 61.9344 209.37C62.9709 209.521 63.9674 209.875 64.8663 210.413C65.7651 210.951 66.5486 211.661 67.1716 212.504C67.7945 213.346 68.2446 214.303 68.4958 215.32C68.747 216.337 68.7944 217.393 68.6353 218.429C68.4761 219.464 68.1136 220.458 67.5686 221.352C67.0236 222.247 66.3069 223.024 65.4598 223.641Z" fill="#14BA9C"/>
<path d="M40.9259 161.754C44.0678 164.806 58.7145 167.969 58.7145 167.969C58.7145 167.969 55.1286 153.425 51.9867 150.369C51.2456 149.613 50.3609 149.014 49.3848 148.606C48.4086 148.198 47.3607 147.989 46.3026 147.991C45.2445 147.994 44.1976 148.208 43.2235 148.621C42.2495 149.035 41.3678 149.638 40.6306 150.397C39.8933 151.156 39.3152 152.055 38.9303 153.041C38.5454 154.026 38.3616 155.079 38.3895 156.137C38.4174 157.194 38.6566 158.236 39.0929 159.2C39.5292 160.164 40.1539 161.031 40.9302 161.75L40.9259 161.754Z" fill="#14BA9C"/>
<path d="M32.6185 198.454C36.5331 200.426 51.4487 199.064 51.4487 199.064C51.4487 199.064 43.675 186.258 39.7604 184.285C37.8874 183.387 35.7367 183.259 33.7703 183.929C31.8038 184.598 30.1783 186.012 29.2428 187.867C28.3073 189.722 28.1364 191.869 28.7668 193.849C29.3971 195.828 30.7785 197.482 32.6143 198.454H32.6185Z" fill="#14BA9C"/>
<path d="M29.4385 235.234C32.9604 237.838 47.8973 239.016 47.8973 239.016C47.8973 239.016 42.399 225.078 38.8728 222.474C37.1797 221.243 35.0684 220.73 32.9989 221.048C30.9295 221.366 29.0695 222.489 27.8244 224.173C26.5793 225.856 26.0498 227.963 26.3513 230.035C26.6529 232.107 27.761 233.976 29.4343 235.234H29.4385Z" fill="#14BA9C"/>
<path opacity="0.25" d="M60.4052 126.599C60.4052 130.984 52.4693 143.675 52.4693 143.675C52.4693 143.675 44.5334 130.967 44.5334 126.599C44.5089 125.542 44.6959 124.49 45.0836 123.506C45.4713 122.522 46.0518 121.626 46.7909 120.869C47.5301 120.113 48.413 119.512 49.3878 119.101C50.3625 118.691 51.4095 118.479 52.4672 118.479C53.5248 118.479 54.5718 118.691 55.5466 119.101C56.5214 119.512 57.4043 120.113 58.1434 120.869C58.8826 121.626 59.463 122.522 59.8507 123.506C60.2384 124.49 60.4255 125.542 60.401 126.599H60.4052Z" fill="black"/>
<path opacity="0.25" d="M73.5366 150.873C71.1545 154.552 57.5879 160.905 57.5879 160.905C57.5879 160.905 57.8355 145.925 60.2175 142.245C61.386 140.536 63.1759 139.351 65.2056 138.944C67.2352 138.536 69.3439 138.937 71.0817 140.062C72.8195 141.188 74.0488 142.947 74.5074 144.966C74.9661 146.985 74.6177 149.103 73.5366 150.868V150.873Z" fill="black"/>
<path opacity="0.25" d="M72.9601 192.353C69.0455 194.326 54.1299 192.964 54.1299 192.964C54.1299 192.964 61.9036 180.157 65.8182 178.185C67.6912 177.286 69.8419 177.158 71.8083 177.828C73.7748 178.498 75.4003 179.912 76.3358 181.766C77.2713 183.621 77.4422 185.769 76.8118 187.748C76.1815 189.728 74.8001 191.381 72.9644 192.353H72.9601Z" fill="black"/>
<path opacity="0.25" d="M65.4598 223.641C61.9379 226.245 47.001 227.423 47.001 227.423C47.001 227.423 52.4993 213.489 56.0212 210.881C56.8583 210.251 57.8118 209.794 58.8267 209.534C59.8416 209.275 60.8978 209.219 61.9344 209.37C62.9709 209.521 63.9674 209.875 64.8663 210.413C65.7651 210.951 66.5486 211.661 67.1716 212.504C67.7945 213.346 68.2446 214.303 68.4958 215.32C68.747 216.337 68.7944 217.393 68.6353 218.429C68.4761 219.464 68.1136 220.458 67.5686 221.352C67.0236 222.247 66.3069 223.024 65.4598 223.641Z" fill="black"/>
<path opacity="0.25" d="M40.9259 161.754C44.0678 164.806 58.7145 167.969 58.7145 167.969C58.7145 167.969 55.1286 153.425 51.9867 150.369C51.2456 149.613 50.3609 149.014 49.3848 148.606C48.4086 148.198 47.3607 147.989 46.3026 147.991C45.2445 147.994 44.1976 148.208 43.2235 148.621C42.2495 149.035 41.3678 149.638 40.6306 150.397C39.8933 151.156 39.3152 152.055 38.9303 153.041C38.5454 154.026 38.3616 155.079 38.3895 156.137C38.4174 157.194 38.6566 158.236 39.0929 159.2C39.5292 160.164 40.1539 161.031 40.9302 161.75L40.9259 161.754Z" fill="black"/>
<path opacity="0.25" d="M32.6185 198.454C36.5331 200.426 51.4487 199.064 51.4487 199.064C51.4487 199.064 43.675 186.258 39.7604 184.285C37.8874 183.387 35.7367 183.259 33.7703 183.929C31.8038 184.598 30.1783 186.012 29.2428 187.867C28.3073 189.722 28.1364 191.869 28.7668 193.849C29.3971 195.828 30.7785 197.482 32.6143 198.454H32.6185Z" fill="black"/>
<path opacity="0.25" d="M29.4385 235.234C32.9604 237.838 47.8973 239.016 47.8973 239.016C47.8973 239.016 42.399 225.078 38.8728 222.474C37.1797 221.243 35.0684 220.73 32.9989 221.048C30.9295 221.366 29.0695 222.489 27.8244 224.173C26.5793 225.856 26.0498 227.963 26.3513 230.035C26.6529 232.107 27.761 233.976 29.4343 235.234H29.4385Z" fill="black"/>
<path d="M379.84 248.131C379.84 248.131 369.309 212.374 381.817 186.056C387.067 175.013 388.809 162.612 386.384 150.624C385.225 144.933 383.546 139.36 381.368 133.976" stroke="#535461" stroke-width="0.853784" stroke-miterlimit="10"/>
<path d="M389.15 117.365C389.15 121.749 381.214 134.441 381.214 134.441C381.214 134.441 373.279 121.732 373.279 117.365C373.254 116.308 373.441 115.256 373.829 114.272C374.216 113.288 374.797 112.391 375.536 111.635C376.275 110.878 377.158 110.277 378.133 109.867C379.108 109.457 380.155 109.245 381.212 109.245C382.27 109.245 383.317 109.457 384.292 109.867C385.266 110.277 386.149 110.878 386.889 111.635C387.628 112.391 388.208 113.288 388.596 114.272C388.984 115.256 389.171 116.308 389.146 117.365H389.15Z" fill="#14BA9C"/>
<path d="M402.265 141.639C399.883 145.319 386.316 151.671 386.316 151.671C386.316 151.671 386.564 136.691 388.946 133.011C389.499 132.108 390.227 131.325 391.087 130.708C391.948 130.09 392.923 129.652 393.955 129.417C394.988 129.182 396.057 129.157 397.1 129.342C398.142 129.527 399.138 129.919 400.026 130.494C400.915 131.07 401.68 131.817 402.276 132.693C402.871 133.568 403.285 134.554 403.494 135.593C403.702 136.631 403.701 137.7 403.49 138.738C403.279 139.776 402.862 140.76 402.265 141.635V141.639Z" fill="#14BA9C"/>
<path d="M401.693 183.12C397.778 185.092 382.862 183.73 382.862 183.73C382.862 183.73 390.636 170.924 394.551 168.951C396.424 168.053 398.574 167.925 400.541 168.595C402.507 169.264 404.133 170.678 405.068 172.533C406.004 174.388 406.175 176.535 405.544 178.515C404.914 180.494 403.533 182.148 401.697 183.12H401.693Z" fill="#14BA9C"/>
<path d="M394.192 214.406C390.67 217.01 375.733 218.188 375.733 218.188C375.733 218.188 381.232 204.255 384.754 201.646C386.447 200.415 388.558 199.902 390.628 200.22C392.697 200.538 394.557 201.661 395.802 203.344C397.047 205.028 397.577 207.135 397.275 209.207C396.974 211.279 395.866 213.148 394.192 214.406Z" fill="#14BA9C"/>
<path d="M369.654 152.507C372.796 155.559 387.443 158.723 387.443 158.723C387.443 158.723 383.857 144.179 380.715 141.122C379.205 139.655 377.175 138.848 375.07 138.879C372.965 138.909 370.959 139.774 369.492 141.284C368.025 142.794 367.218 144.825 367.249 146.929C367.279 149.034 368.145 151.04 369.654 152.507Z" fill="#14BA9C"/>
<path d="M361.364 189.22C365.279 191.192 380.194 189.83 380.194 189.83C380.194 189.83 372.421 177.024 368.506 175.051C366.635 174.167 364.492 174.048 362.534 174.721C360.576 175.394 358.959 176.805 358.028 178.654C357.096 180.502 356.923 182.642 357.547 184.616C358.17 186.59 359.54 188.242 361.364 189.22Z" fill="#14BA9C"/>
<path d="M358.167 226.001C361.689 228.605 376.625 229.783 376.625 229.783C376.625 229.783 371.127 215.849 367.605 213.241C365.912 212.009 363.801 211.497 361.731 211.815C359.662 212.133 357.802 213.256 356.557 214.939C355.312 216.622 354.782 218.73 355.084 220.802C355.385 222.873 356.493 224.742 358.167 226.001Z" fill="#14BA9C"/>
<path d="M332.335 244.652C332.335 244.652 326.674 225.442 333.398 211.295C336.255 205.381 337.116 198.7 335.853 192.255C335.229 189.201 334.328 186.21 333.159 183.32" stroke="#535461" stroke-width="0.853784" stroke-miterlimit="10"/>
<path d="M337.339 174.377C337.339 176.734 333.07 183.56 333.07 183.56C333.07 183.56 328.801 176.729 328.801 174.377C328.801 173.245 329.251 172.159 330.051 171.359C330.852 170.558 331.938 170.108 333.07 170.108C334.202 170.108 335.288 170.558 336.088 171.359C336.889 172.159 337.339 173.245 337.339 174.377Z" fill="#14BA9C"/>
<path d="M344.386 187.423C343.106 189.399 335.814 192.814 335.814 192.814C335.814 192.814 335.947 184.763 337.227 182.787C337.519 182.289 337.908 181.855 338.372 181.511C338.835 181.168 339.364 180.922 339.925 180.789C340.486 180.655 341.069 180.637 341.637 180.735C342.206 180.833 342.749 181.045 343.233 181.359C343.717 181.672 344.133 182.081 344.455 182.559C344.777 183.038 344.998 183.577 345.106 184.144C345.214 184.711 345.206 185.294 345.082 185.857C344.958 186.421 344.722 186.953 344.386 187.423Z" fill="#14BA9C"/>
<path d="M344.079 209.711C341.975 210.77 333.958 210.04 333.958 210.04C333.958 210.04 338.137 203.158 340.237 202.099C341.24 201.646 342.379 201.598 343.417 201.965C344.455 202.331 345.311 203.084 345.806 204.067C346.302 205.049 346.399 206.185 346.077 207.238C345.755 208.29 345.04 209.178 344.079 209.715V209.711Z" fill="#14BA9C"/>
<path d="M340.045 226.526C338.15 227.926 330.124 228.558 330.124 228.558C330.124 228.558 333.078 221.07 334.974 219.67C335.885 219.062 336.997 218.827 338.077 219.016C339.157 219.204 340.123 219.801 340.775 220.682C341.427 221.564 341.715 222.662 341.579 223.75C341.443 224.838 340.894 225.832 340.045 226.526Z" fill="#14BA9C"/>
<path d="M326.863 193.271C328.57 194.91 336.421 196.613 336.421 196.613C336.421 196.613 334.495 188.797 332.805 187.158C332.41 186.736 331.934 186.399 331.405 186.167C330.876 185.935 330.306 185.813 329.728 185.808C329.151 185.803 328.578 185.915 328.045 186.137C327.512 186.36 327.03 186.688 326.628 187.102C326.225 187.516 325.911 188.008 325.704 188.547C325.497 189.086 325.402 189.662 325.424 190.239C325.446 190.816 325.585 191.383 325.832 191.904C326.079 192.426 326.43 192.893 326.863 193.275V193.271Z" fill="#14BA9C"/>
<path d="M322.397 212.993C324.502 214.052 332.519 213.322 332.519 213.322C332.519 213.322 328.34 206.44 326.24 205.382C325.237 204.928 324.097 204.88 323.06 205.247C322.022 205.613 321.166 206.367 320.67 207.349C320.175 208.332 320.078 209.468 320.399 210.52C320.721 211.573 321.437 212.46 322.397 212.997V212.993Z" fill="#14BA9C"/>
<path d="M320.69 232.763C322.585 234.163 330.611 234.795 330.611 234.795C330.611 234.795 327.64 227.303 325.761 225.903C324.849 225.283 323.732 225.04 322.645 225.225C321.557 225.41 320.584 226.008 319.928 226.895C319.272 227.782 318.985 228.889 319.127 229.983C319.269 231.076 319.829 232.073 320.69 232.763Z" fill="#14BA9C"/>
<path opacity="0.1" d="M112.99 20.3543H110.053C110.331 20.367 110.608 20.3232 110.869 20.2256C111.129 20.128 111.367 19.9787 111.568 19.7865C111.769 19.5944 111.929 19.3635 112.039 19.1078C112.148 18.8521 112.204 18.5769 112.204 18.2988C112.204 18.0207 112.148 17.7455 112.039 17.4898C111.929 17.2341 111.769 17.0032 111.568 16.8111C111.367 16.619 111.129 16.4696 110.869 16.3721C110.608 16.2745 110.331 16.2307 110.053 16.2433H86.2623C85.7333 16.2675 85.234 16.4945 84.8683 16.8774C84.5025 17.2602 84.2984 17.7693 84.2984 18.2988C84.2984 18.8283 84.5025 19.3374 84.8683 19.7203C85.234 20.1031 85.7333 20.3302 86.2623 20.3543H89.1993C88.9215 20.3416 88.644 20.3854 88.3836 20.483C88.1232 20.5806 87.8852 20.73 87.6842 20.9221C87.4831 21.1142 87.323 21.3451 87.2137 21.6008C87.1044 21.8565 87.048 22.1317 87.048 22.4098C87.048 22.6879 87.1044 22.9631 87.2137 23.2188C87.323 23.4745 87.4831 23.7054 87.6842 23.8975C87.8852 24.0896 88.1232 24.239 88.3836 24.3366C88.644 24.4342 88.9215 24.4779 89.1993 24.4653H85.0883C84.8105 24.4526 84.533 24.4964 84.2726 24.594C84.0122 24.6916 83.7743 24.8409 83.5732 25.0331C83.3721 25.2252 83.2121 25.4561 83.1027 25.7118C82.9934 25.9675 82.937 26.2427 82.937 26.5208C82.937 26.7989 82.9934 27.0741 83.1027 27.3298C83.2121 27.5855 83.3721 27.8164 83.5732 28.0085C83.7743 28.2006 84.0122 28.35 84.2726 28.4475C84.533 28.5451 84.8105 28.5889 85.0883 28.5763H108.879C109.157 28.5889 109.434 28.5451 109.695 28.4475C109.955 28.35 110.193 28.2006 110.394 28.0085C110.595 27.8164 110.755 27.5855 110.865 27.3298C110.974 27.0741 111.03 26.7989 111.03 26.5208C111.03 26.2427 110.974 25.9675 110.865 25.7118C110.755 25.4561 110.595 25.2252 110.394 25.0331C110.193 24.8409 109.955 24.6916 109.695 24.594C109.434 24.4964 109.157 24.4526 108.879 24.4653H112.99C113.268 24.4779 113.545 24.4342 113.806 24.3366C114.066 24.239 114.304 24.0896 114.505 23.8975C114.706 23.7054 114.866 23.4745 114.976 23.2188C115.085 22.9631 115.141 22.6879 115.141 22.4098C115.141 22.1317 115.085 21.8565 114.976 21.6008C114.866 21.3451 114.706 21.1142 114.505 20.9221C114.304 20.73 114.066 20.5806 113.806 20.483C113.545 20.3854 113.268 20.3416 112.99 20.3543Z" fill="#252223"/>
<path opacity="0.1" d="M218.005 72.0086H215.068C215.346 72.0213 215.623 71.9775 215.884 71.8799C216.144 71.7823 216.382 71.633 216.583 71.4409C216.784 71.2487 216.944 71.0179 217.054 70.7621C217.163 70.5064 217.219 70.2312 217.219 69.9531C217.219 69.675 217.163 69.3998 217.054 69.1441C216.944 68.8884 216.784 68.6575 216.583 68.4654C216.382 68.2733 216.144 68.1239 215.884 68.0264C215.623 67.9288 215.346 67.885 215.068 67.8976H191.277C190.748 67.9218 190.249 68.1488 189.883 68.5317C189.518 68.9145 189.313 69.4236 189.313 69.9531C189.313 70.4826 189.518 70.9917 189.883 71.3746C190.249 71.7574 190.748 71.9845 191.277 72.0086H194.214C193.937 71.996 193.659 72.0397 193.399 72.1373C193.138 72.2349 192.9 72.3843 192.699 72.5764C192.498 72.7685 192.338 72.9994 192.229 73.2551C192.119 73.5108 192.063 73.786 192.063 74.0641C192.063 74.3422 192.119 74.6174 192.229 74.8731C192.338 75.1288 192.498 75.3597 192.699 75.5518C192.9 75.7439 193.138 75.8933 193.399 75.9909C193.659 76.0885 193.937 76.1322 194.214 76.1196H190.103C189.826 76.1069 189.548 76.1507 189.288 76.2483C189.027 76.3459 188.789 76.4952 188.588 76.6874C188.387 76.8795 188.227 77.1104 188.118 77.3661C188.009 77.6218 187.952 77.897 187.952 78.1751C187.952 78.4532 188.009 78.7284 188.118 78.9841C188.227 79.2398 188.387 79.4707 188.588 79.6628C188.789 79.8549 189.027 80.0043 189.288 80.1019C189.548 80.1994 189.826 80.2432 190.103 80.2306H213.894C214.172 80.2432 214.449 80.1994 214.71 80.1019C214.97 80.0043 215.208 79.8549 215.409 79.6628C215.61 79.4707 215.77 79.2398 215.88 78.9841C215.989 78.7284 216.045 78.4532 216.045 78.1751C216.045 77.897 215.989 77.6218 215.88 77.3661C215.77 77.1104 215.61 76.8795 215.409 76.6874C215.208 76.4952 214.97 76.3459 214.71 76.2483C214.449 76.1507 214.172 76.1069 213.894 76.1196H218.005C218.283 76.1322 218.56 76.0885 218.821 75.9909C219.081 75.8933 219.319 75.7439 219.52 75.5518C219.721 75.3597 219.881 75.1288 219.991 74.8731C220.1 74.6174 220.156 74.3422 220.156 74.0641C220.156 73.786 220.1 73.5108 219.991 73.2551C219.881 72.9994 219.721 72.7685 219.52 72.5764C219.319 72.3843 219.081 72.2349 218.821 72.1373C218.56 72.0397 218.283 71.996 218.005 72.0086Z" fill="#252223"/>
<path opacity="0.1" d="M396.873 4.55939H393.936C394.214 4.57206 394.491 4.52827 394.751 4.43069C395.012 4.3331 395.25 4.18374 395.451 3.99162C395.652 3.79951 395.812 3.56862 395.921 3.31292C396.031 3.05722 396.087 2.78201 396.087 2.50391C396.087 2.22581 396.031 1.95059 395.921 1.69489C395.812 1.43919 395.652 1.20831 395.451 1.01619C395.25 0.824074 395.012 0.674713 394.751 0.577128C394.491 0.479542 394.214 0.43576 393.936 0.448424H370.145C369.616 0.472535 369.117 0.699625 368.751 1.08246C368.385 1.4653 368.181 1.97441 368.181 2.50391C368.181 3.0334 368.385 3.54251 368.751 3.92535C369.117 4.30819 369.616 4.53528 370.145 4.55939H373.082C372.804 4.54673 372.527 4.59051 372.266 4.6881C372.006 4.78568 371.768 4.93505 371.567 5.12716C371.366 5.31928 371.206 5.55016 371.097 5.80586C370.987 6.06157 370.931 6.33678 370.931 6.61488C370.931 6.89298 370.987 7.16819 371.097 7.42389C371.206 7.67959 371.366 7.91048 371.567 8.10259C371.768 8.29471 372.006 8.44407 372.266 8.54165C372.527 8.63924 372.804 8.68303 373.082 8.67036H368.971C368.693 8.6577 368.416 8.70148 368.155 8.79907C367.895 8.89665 367.657 9.04602 367.456 9.23813C367.255 9.43025 367.095 9.66113 366.986 9.91683C366.876 10.1725 366.82 10.4477 366.82 10.7258C366.82 11.0039 366.876 11.2792 366.986 11.5349C367.095 11.7906 367.255 12.0214 367.456 12.2136C367.657 12.4057 367.895 12.555 368.155 12.6526C368.416 12.7502 368.693 12.794 368.971 12.7813H392.762C393.291 12.7572 393.79 12.5301 394.156 12.1473C394.522 11.7645 394.726 11.2553 394.726 10.7258C394.726 10.1964 394.522 9.68724 394.156 9.30441C393.79 8.92157 393.291 8.69447 392.762 8.67036H396.873C397.151 8.68303 397.428 8.63924 397.689 8.54165C397.949 8.44407 398.187 8.29471 398.388 8.10259C398.589 7.91048 398.749 7.67959 398.858 7.42389C398.968 7.16819 399.024 6.89298 399.024 6.61488C399.024 6.33678 398.968 6.06157 398.858 5.80586C398.749 5.55016 398.589 5.31928 398.388 5.12716C398.187 4.93505 397.949 4.78568 397.689 4.6881C397.428 4.59051 397.151 4.54673 396.873 4.55939Z" fill="#252223"/>
<path d="M169.719 152.055C169.391 152.294 169.211 152.426 169.211 152.426C169.398 152.328 169.569 152.203 169.719 152.055Z" fill="url(#paint0_linear_123_749)"/>
<path d="M170.116 152.456C169.788 152.695 169.608 152.827 169.608 152.827C169.795 152.729 169.966 152.604 170.116 152.456Z" fill="url(#paint1_linear_123_749)"/>
<g opacity="0.1">
<path opacity="0.1" d="M178.629 144.99C178.629 144.99 165.779 163.098 160.699 181.399C160.699 181.399 156.221 189.186 156.806 197.169L148.644 236.695L163.636 242.342C163.636 242.342 162.86 237.476 165.771 234.748C168.682 232.02 175.504 204.375 174.924 200.093C174.924 200.093 184.268 176.729 193.613 167.577C202.958 158.424 207.611 156.315 208.981 148.413C208.989 148.413 187 137.784 178.629 144.99Z" fill="black"/>
</g>
<g opacity="0.1">
<path opacity="0.1" d="M141.375 131.085L141.371 131.087C139.725 131.88 139.034 133.858 139.827 135.504L143.973 144.102C144.766 145.748 146.744 146.439 148.39 145.645L148.394 145.643C150.04 144.85 150.73 142.872 149.937 141.226L145.792 132.628C144.998 130.982 143.02 130.291 141.375 131.085Z" fill="black"/>
</g>
<path d="M146.535 132.379C145.718 130.684 143.682 129.973 141.987 130.79C140.292 131.607 139.581 133.643 140.398 135.338L144.458 143.759C145.275 145.454 147.311 146.166 149.006 145.349C150.701 144.531 151.412 142.495 150.595 140.8L146.535 132.379Z" fill="#CBDAE3"/>
<path d="M148.836 144.779C149.127 144.638 149.212 144.211 149.025 143.825C148.839 143.438 148.452 143.239 148.161 143.379C147.87 143.519 147.785 143.946 147.972 144.333C148.158 144.719 148.545 144.919 148.836 144.779Z" fill="#F2F2F2"/>
</g>
<defs>
<linearGradient id="paint0_linear_123_749" x1="432.804" y1="325.265" x2="433.408" y2="325.265" gradientUnits="userSpaceOnUse">
<stop stop-color="#808080" stop-opacity="0.25"/>
<stop offset="0.54" stop-color="#808080" stop-opacity="0.12"/>
<stop offset="1" stop-color="#808080" stop-opacity="0.1"/>
</linearGradient>
<linearGradient id="paint1_linear_123_749" x1="433.673" y1="326.012" x2="434.283" y2="326.012" gradientUnits="userSpaceOnUse">
<stop stop-color="#808080" stop-opacity="0.25"/>
<stop offset="0.54" stop-color="#808080" stop-opacity="0.12"/>
<stop offset="1" stop-color="#808080" stop-opacity="0.1"/>
</linearGradient>
<clipPath id="clip0_123_749">
<rect width="407.682" height="290.5" fill="white"/>
</clipPath>
</defs>
</svg>
