<svg width="17" height="19" viewBox="0 0 17 19" fill="none" xmlns="http://www.w3.org/2000/svg">
<path d="M1.93345 17.2771C1.90273 17.2429 1.87201 17.2086 1.87201 17.1746C1.74928 17.0036 1.62654 16.8326 1.44237 16.6958C1.41165 16.6616 1.41165 16.6616 1.38093 16.6274C1.35021 16.5931 1.31949 16.5931 1.28892 16.5589C1.10474 16.4221 0.890011 16.3194 0.705826 16.2169C0.675105 16.2169 0.675105 16.2169 0.644382 16.1827C0.613661 16.1827 0.582939 16.1827 0.582939 16.1484L0 18.3715V18.4741C0 18.5766 0.0307213 18.6451 0.0920121 18.7135C0.122733 18.7478 0.153455 18.782 0.184024 18.782H0.245468H0.306911H0.398923L2.33238 18.1323L2.27094 17.9955C2.2098 17.7559 2.08691 17.5166 1.93345 17.2771Z" fill="white"/>
<path d="M15.9899 2.33558L14.519 0.711742C14.3776 0.555596 14.2078 0.461971 14.038 0.39945C13.8683 0.336929 13.6704 0.336929 13.5006 0.368191C13.246 0.39945 13.0196 0.524336 12.85 0.743003L11.6619 2.05471L14.7736 5.61479L15.9899 4.27202C16.0182 4.24076 16.0182 4.2095 16.0465 4.2095C16.4425 3.61602 16.4142 2.8353 15.9899 2.33559L15.9899 2.33558Z" fill="white"/>
<path d="M3.99517 14.8579L3.54511 14.351L12.0328 4.79106L10.4897 2.98047L1.74476 12.8301C1.71258 12.8663 1.6804 12.9386 1.6804 12.9749L1.58401 13.2645L1.16614 14.8578H1.2305C2.32358 15.2199 3.15953 16.1977 3.48103 17.3926V17.4651L5.18492 16.8857H5.2171C5.2171 16.8857 5.24928 16.8857 5.24928 16.8494C5.28146 16.8494 5.28146 16.8132 5.31365 16.8132L13.9943 7.03599L12.4511 5.2254L3.99517 14.8579Z" fill="white"/>
</svg>
