<svg width="23" height="23" viewBox="0 0 23 23" fill="none" xmlns="http://www.w3.org/2000/svg">
<path d="M19.4062 0H3.59375C1.60425 0 0 1.61 0 3.59375V19.4062C0 21.39 1.61 23 3.59375 23H19.4062C21.39 23 23 21.39 23 19.4062V3.59375C23 1.61 21.39 0 19.4062 0ZM12.2878 17.25V13.156H13.6562L13.9438 11.5H12.3625V10.419C12.3625 9.98775 12.581 9.5565 13.294 9.5565H14.0128V8.119C14.0128 8.119 13.3688 7.97525 12.719 7.97525C11.4253 7.97525 10.5628 8.76875 10.5628 10.2063V11.5H9.12525V13.156H10.5628V17.181C7.8315 16.7498 5.74425 14.375 5.74425 11.5C5.74425 8.3375 8.33175 5.75 11.4943 5.75C14.6568 5.75 17.2443 8.3375 17.2443 11.5C17.2443 14.375 15.1628 16.8188 12.2878 17.25Z" fill="#39579B"/>
</svg>
