<svg width="17" height="20" viewBox="0 0 17 20" fill="none" xmlns="http://www.w3.org/2000/svg">
<path d="M12.1405 8.96862L12.1406 8.9687C12.1997 9.02236 12.2464 9.08585 12.2781 9.15538C12.3099 9.2249 12.3261 9.29923 12.3261 9.37417C12.3261 9.4491 12.3099 9.52343 12.2781 9.59295C12.2464 9.66248 12.1997 9.72597 12.1406 9.77963L12.1405 9.77967L8.01551 13.5297L8.01547 13.5297C7.95643 13.5835 7.88605 13.6264 7.80825 13.6558C7.73044 13.6851 7.64688 13.7003 7.5624 13.7003C7.47792 13.7003 7.39436 13.6851 7.31655 13.6558C7.23874 13.6264 7.16836 13.5835 7.10933 13.5297L7.10928 13.5297L5.04678 11.6547C4.98769 11.601 4.9411 11.5375 4.90942 11.4679C4.87775 11.3984 4.86152 11.3241 4.86152 11.2492C4.86152 11.1743 4.87775 11.0999 4.90942 11.0304C4.9411 10.9609 4.98769 10.8974 5.04678 10.8437C5.16621 10.7351 5.32913 10.6734 5.49989 10.6734C5.58435 10.6734 5.66789 10.6885 5.7457 10.7178C5.82351 10.7471 5.89392 10.7899 5.95301 10.8437L7.52875 12.2774L7.56239 12.308L7.59604 12.2774L11.2343 8.96865L11.2343 8.96862C11.2934 8.91482 11.3637 8.87191 11.4416 8.84256C11.5194 8.8132 11.6029 8.79805 11.6874 8.79805C11.7719 8.79805 11.8554 8.8132 11.9333 8.84256C12.0111 8.87191 12.0814 8.91482 12.1405 8.96862Z" fill="#14BA9C" stroke="white" stroke-width="0.1"/>
<path d="M2.35715 1.71602H3.48572V2.88039H2.35715C2.03013 2.88039 1.71728 3.01978 1.4872 3.26662C1.25722 3.51334 1.12857 3.84725 1.12857 4.19476V17.4706C1.12857 17.8181 1.25722 18.1521 1.4872 18.3988C1.71728 18.6456 2.03013 18.785 2.35715 18.785H14.1429C14.4699 18.785 14.7827 18.6456 15.0128 18.3988C15.2428 18.1521 15.3715 17.8181 15.3715 17.4706V4.19476C15.3715 3.84725 15.2428 3.51334 15.0128 3.26662C14.7827 3.01978 14.4699 2.88039 14.1429 2.88039H13.0143V1.71602H14.1429C14.7536 1.71602 15.3401 1.97625 15.7731 2.44076C16.2062 2.90539 16.45 3.53626 16.45 4.19476V17.4706C16.45 18.1291 16.2062 18.76 15.7731 19.2246C15.3401 19.6892 14.7536 19.9494 14.1429 19.9494H2.35715C1.74643 19.9494 1.15996 19.6892 0.726967 19.2246C0.293867 18.76 0.05 18.1291 0.05 17.4706V4.19476C0.05 3.53626 0.293867 2.90539 0.726967 2.44076C1.15996 1.97625 1.74643 1.71602 2.35715 1.71602Z" fill="#14BA9C" stroke="white" stroke-width="0.1"/>
<path d="M10.8323 1.39606C10.6937 1.27007 10.5067 1.2 10.3125 1.2H6.1875C5.99336 1.2 5.80633 1.27007 5.66773 1.39606C5.52898 1.5222 5.45 1.69436 5.45 1.875V3.12501C5.45 3.30565 5.52898 3.47781 5.66773 3.60395C5.80633 3.72994 5.99336 3.80001 6.1875 3.80001H10.3125C10.5067 3.80001 10.6937 3.72994 10.8323 3.60395C10.971 3.47781 11.05 3.30565 11.05 3.12501V1.875C11.05 1.69436 10.971 1.5222 10.8323 1.39606ZM4.76273 0.586173C5.13986 0.243325 5.6523 0.05 6.1875 0.05H10.3125C10.8477 0.05 11.3602 0.243325 11.7373 0.586173C12.1143 0.928876 12.325 1.3926 12.325 1.875V3.12501C12.325 3.60741 12.1143 4.07113 11.7373 4.41384C11.3602 4.75668 10.8477 4.95001 10.3125 4.95001H6.1875C5.6523 4.95001 5.13986 4.75668 4.76273 4.41384C4.38575 4.07113 4.175 3.60741 4.175 3.12501V1.875C4.175 1.3926 4.38575 0.928876 4.76273 0.586173Z" fill="#14BA9C" stroke="white" stroke-width="0.1"/>
</svg>
