<svg width="34" height="34" viewBox="0 0 34 34" fill="none" xmlns="http://www.w3.org/2000/svg">
<path d="M10.929 14.3622L10.929 5.60156" stroke="white" stroke-width="1.1682" stroke-linecap="round" stroke-linejoin="round"/>
<path d="M24.4055 18.2695L24.4055 27.0302" stroke="white" stroke-width="1.1682" stroke-linecap="round" stroke-linejoin="round"/>
<path fill-rule="evenodd" clip-rule="evenodd" d="M24.4809 12.1321C26.2824 12.1321 27.7432 10.6608 27.7432 8.8463C27.7432 7.03183 26.2824 5.56055 24.4809 5.56055C22.6794 5.56055 21.2186 7.03183 21.2186 8.8463C21.2186 10.6608 22.6794 12.1321 24.4809 12.1321Z" stroke="white" stroke-width="1.1682" stroke-linecap="round" stroke-linejoin="round"/>
<path fill-rule="evenodd" clip-rule="evenodd" d="M10.9833 27.8078C12.7848 27.8078 14.2456 26.3377 14.2456 24.5232C14.2456 22.7076 12.7848 21.2363 10.9833 21.2363C9.18183 21.2363 7.72107 22.7076 7.72107 24.5232C7.72107 26.3377 9.18183 27.8078 10.9833 27.8078Z" stroke="white" stroke-width="1.1682" stroke-linecap="round" stroke-linejoin="round"/>
</svg>
