<svg width="121" height="30" viewBox="0 0 121 30" fill="none" xmlns="http://www.w3.org/2000/svg">
<rect x="0.558594" width="120" height="30" rx="6.14" fill="#FAFDFF"/>
<rect x="0.683594" y="0.125" width="119.75" height="29.75" rx="6.015" stroke="#99ABC6" stroke-opacity="0.18" stroke-width="0.25"/>
<path d="M24.5581 25.0241V15.0003M24.5581 9.43156H20.0475C16.9624 9.43156 16.773 4.97656 20.0475 4.97656C23.5558 4.97656 24.5581 9.43156 24.5581 9.43156ZM24.5581 9.43156H29.0688C32.2942 9.43156 32.2942 4.97656 29.0688 4.97656C25.5605 4.97656 24.5581 9.43156 24.5581 9.43156Z" stroke="#1E1E1E" stroke-width="1.75" stroke-linecap="round" stroke-linejoin="round"/>
<path d="M33.4684 15.0004V22.7966C33.4684 23.3874 33.2337 23.954 32.816 24.3717C32.3983 24.7895 31.8317 25.0241 31.2409 25.0241H17.8759C17.2851 25.0241 16.7186 24.7895 16.3008 24.3717C15.8831 23.954 15.6484 23.3874 15.6484 22.7966V15.0004M34.5822 15.0004V11.6591C34.5822 11.0684 34.3475 10.5018 33.9297 10.0841C33.512 9.66632 32.9454 9.43164 32.3547 9.43164H16.7622C16.1714 9.43164 15.6048 9.66632 15.1871 10.0841C14.7694 10.5018 14.5347 11.0684 14.5347 11.6591V15.0004H34.5822Z" stroke="#1E1E1E" stroke-width="1.75" stroke-linecap="round" stroke-linejoin="round"/>
<path d="M47.3393 21.162C45.9593 21.162 44.7953 20.904 43.8473 20.388C42.8993 19.86 42.1793 19.11 41.6873 18.138C41.2073 17.166 40.9673 16.008 40.9673 14.664C40.9673 13.656 41.1053 12.756 41.3813 11.964C41.6693 11.16 42.0773 10.476 42.6053 9.912C43.1453 9.336 43.7993 8.898 44.5673 8.598C45.3473 8.298 46.2293 8.148 47.2133 8.148C47.9333 8.148 48.6413 8.244 49.3373 8.436C50.0333 8.616 50.6693 8.916 51.2453 9.336C51.4133 9.456 51.5213 9.594 51.5693 9.75C51.6173 9.906 51.6173 10.068 51.5693 10.236C51.5333 10.392 51.4553 10.53 51.3353 10.65C51.2273 10.77 51.0893 10.842 50.9213 10.866C50.7653 10.89 50.5913 10.842 50.3993 10.722C49.9313 10.398 49.4393 10.164 48.9233 10.02C48.4073 9.864 47.8373 9.786 47.2133 9.786C46.2773 9.786 45.4853 9.978 44.8373 10.362C44.2013 10.746 43.7213 11.304 43.3973 12.036C43.0733 12.756 42.9113 13.632 42.9113 14.664C42.9113 16.26 43.2893 17.472 44.0453 18.3C44.8013 19.128 45.9233 19.542 47.4113 19.542C47.9513 19.542 48.4793 19.494 48.9953 19.398C49.5233 19.29 50.0273 19.14 50.5073 18.948L50.1293 19.884V15.69H47.8073C47.5673 15.69 47.3753 15.63 47.2313 15.51C47.0993 15.378 47.0333 15.198 47.0333 14.97C47.0333 14.742 47.0993 14.574 47.2313 14.466C47.3753 14.346 47.5673 14.286 47.8073 14.286H50.9213C51.1733 14.286 51.3653 14.352 51.4973 14.484C51.6293 14.616 51.6953 14.808 51.6953 15.06V19.596C51.6953 19.812 51.6533 19.998 51.5693 20.154C51.4973 20.298 51.3713 20.406 51.1913 20.478C50.6753 20.682 50.0693 20.85 49.3733 20.982C48.6773 21.102 47.9993 21.162 47.3393 21.162ZM58.4894 21.162C57.5294 21.162 56.7014 20.982 56.0054 20.622C55.3214 20.25 54.7874 19.728 54.4034 19.056C54.0314 18.372 53.8454 17.562 53.8454 16.626C53.8454 15.714 54.0314 14.916 54.4034 14.232C54.7754 13.548 55.2854 13.014 55.9334 12.63C56.5814 12.246 57.3194 12.054 58.1474 12.054C58.7594 12.054 59.3054 12.156 59.7854 12.36C60.2654 12.552 60.6734 12.84 61.0094 13.224C61.3574 13.596 61.6154 14.052 61.7834 14.592C61.9634 15.132 62.0534 15.738 62.0534 16.41C62.0534 16.614 61.9934 16.77 61.8734 16.878C61.7534 16.974 61.5734 17.022 61.3334 17.022H55.2854V15.906H60.8294L60.5234 16.158C60.5234 15.558 60.4334 15.048 60.2534 14.628C60.0854 14.208 59.8274 13.89 59.4794 13.674C59.1434 13.446 58.7234 13.332 58.2194 13.332C57.6554 13.332 57.1754 13.464 56.7794 13.728C56.3954 13.992 56.1014 14.358 55.8974 14.826C55.6934 15.294 55.5914 15.84 55.5914 16.464V16.572C55.5914 17.628 55.8374 18.426 56.3294 18.966C56.8334 19.494 57.5594 19.758 58.5074 19.758C58.8674 19.758 59.2454 19.71 59.6414 19.614C60.0494 19.518 60.4334 19.356 60.7934 19.128C60.9974 19.008 61.1774 18.954 61.3334 18.966C61.5014 18.978 61.6334 19.032 61.7294 19.128C61.8374 19.224 61.9034 19.344 61.9274 19.488C61.9514 19.632 61.9274 19.782 61.8554 19.938C61.7834 20.082 61.6574 20.214 61.4774 20.334C61.0694 20.61 60.5954 20.82 60.0554 20.964C59.5154 21.096 58.9934 21.162 58.4894 21.162ZM67.7617 21.162C67.0417 21.162 66.4357 21.036 65.9437 20.784C65.4517 20.532 65.0857 20.16 64.8457 19.668C64.6057 19.176 64.4857 18.576 64.4857 17.868V13.62H63.4057C63.1657 13.62 62.9797 13.56 62.8477 13.44C62.7157 13.308 62.6497 13.134 62.6497 12.918C62.6497 12.69 62.7157 12.516 62.8477 12.396C62.9797 12.276 63.1657 12.216 63.4057 12.216H64.4857V10.362C64.4857 10.062 64.5637 9.834 64.7197 9.678C64.8877 9.522 65.1157 9.444 65.4037 9.444C65.6917 9.444 65.9137 9.522 66.0697 9.678C66.2257 9.834 66.3037 10.062 66.3037 10.362V12.216H68.4097C68.6497 12.216 68.8357 12.276 68.9677 12.396C69.0997 12.516 69.1657 12.69 69.1657 12.918C69.1657 13.134 69.0997 13.308 68.9677 13.44C68.8357 13.56 68.6497 13.62 68.4097 13.62H66.3037V17.724C66.3037 18.36 66.4357 18.84 66.6997 19.164C66.9757 19.488 67.4197 19.65 68.0317 19.65C68.2477 19.65 68.4337 19.632 68.5897 19.596C68.7577 19.548 68.8957 19.518 69.0037 19.506C69.1357 19.506 69.2437 19.554 69.3277 19.65C69.4117 19.734 69.4537 19.902 69.4537 20.154C69.4537 20.334 69.4177 20.502 69.3457 20.658C69.2857 20.814 69.1717 20.916 69.0037 20.964C68.8597 21.012 68.6617 21.054 68.4097 21.09C68.1697 21.138 67.9537 21.162 67.7617 21.162Z" fill="#1E1E1E"/>
<path d="M79.6401 23.196C79.4241 23.196 79.2441 23.124 79.1001 22.98C78.9681 22.836 78.9021 22.662 78.9021 22.458V20.748L79.2621 21.09C78.4221 21.078 77.6661 20.97 76.9941 20.766C76.3221 20.55 75.7581 20.292 75.3021 19.992C75.1341 19.884 75.0141 19.746 74.9421 19.578C74.8701 19.41 74.8461 19.242 74.8701 19.074C74.9061 18.906 74.9781 18.762 75.0861 18.642C75.1941 18.522 75.3261 18.45 75.4821 18.426C75.6381 18.402 75.8181 18.45 76.0221 18.57C76.3941 18.81 76.8561 19.026 77.4081 19.218C77.9721 19.41 78.6561 19.506 79.4601 19.506C80.1081 19.506 80.6361 19.422 81.0441 19.254C81.4641 19.086 81.7701 18.858 81.9621 18.57C82.1661 18.282 82.2681 17.946 82.2681 17.562C82.2681 17.25 82.1961 16.98 82.0521 16.752C81.9201 16.524 81.6981 16.332 81.3861 16.176C81.0741 16.008 80.6601 15.87 80.1441 15.762L78.2901 15.366C77.1981 15.126 76.3821 14.73 75.8421 14.178C75.3141 13.626 75.0501 12.9 75.0501 12C75.0501 11.292 75.2181 10.662 75.5541 10.11C75.9021 9.558 76.3821 9.12 76.9941 8.796C77.6181 8.472 78.3441 8.286 79.1721 8.238L78.9021 8.49V6.852C78.9021 6.648 78.9681 6.474 79.1001 6.33C79.2441 6.186 79.4241 6.114 79.6401 6.114C79.8441 6.114 80.0181 6.186 80.1621 6.33C80.3061 6.474 80.3781 6.648 80.3781 6.852V8.49L80.0721 8.238C80.6241 8.25 81.2121 8.364 81.8361 8.58C82.4601 8.784 82.9941 9.078 83.4381 9.462C83.5821 9.582 83.6721 9.72 83.7081 9.876C83.7561 10.032 83.7561 10.182 83.7081 10.326C83.6721 10.47 83.6001 10.59 83.4921 10.686C83.3841 10.782 83.2461 10.836 83.0781 10.848C82.9101 10.86 82.7301 10.8 82.5381 10.668C82.1541 10.404 81.7281 10.194 81.2601 10.038C80.8041 9.882 80.2581 9.804 79.6221 9.804C78.7821 9.804 78.1161 10.002 77.6241 10.398C77.1321 10.794 76.8861 11.31 76.8861 11.946C76.8861 12.426 77.0361 12.816 77.3361 13.116C77.6361 13.404 78.1401 13.626 78.8481 13.782L80.7381 14.178C81.8901 14.43 82.7421 14.82 83.2941 15.348C83.8461 15.876 84.1221 16.578 84.1221 17.454C84.1221 18.138 83.9481 18.744 83.6001 19.272C83.2521 19.788 82.7721 20.202 82.1601 20.514C81.5601 20.814 80.8641 21 80.0721 21.072L80.3781 20.73V22.458C80.3781 22.662 80.3061 22.836 80.1621 22.98C80.0301 23.124 79.8561 23.196 79.6401 23.196ZM90.433 23.196C90.217 23.196 90.037 23.124 89.893 22.98C89.761 22.836 89.695 22.662 89.695 22.458V20.748L90.055 21.09C89.215 21.078 88.459 20.97 87.787 20.766C87.115 20.55 86.551 20.292 86.095 19.992C85.927 19.884 85.807 19.746 85.735 19.578C85.663 19.41 85.639 19.242 85.663 19.074C85.699 18.906 85.771 18.762 85.879 18.642C85.987 18.522 86.119 18.45 86.275 18.426C86.431 18.402 86.611 18.45 86.815 18.57C87.187 18.81 87.649 19.026 88.201 19.218C88.765 19.41 89.449 19.506 90.253 19.506C90.901 19.506 91.429 19.422 91.837 19.254C92.257 19.086 92.563 18.858 92.755 18.57C92.959 18.282 93.061 17.946 93.061 17.562C93.061 17.25 92.989 16.98 92.845 16.752C92.713 16.524 92.491 16.332 92.179 16.176C91.867 16.008 91.453 15.87 90.937 15.762L89.083 15.366C87.991 15.126 87.175 14.73 86.635 14.178C86.107 13.626 85.843 12.9 85.843 12C85.843 11.292 86.011 10.662 86.347 10.11C86.695 9.558 87.175 9.12 87.787 8.796C88.411 8.472 89.137 8.286 89.965 8.238L89.695 8.49V6.852C89.695 6.648 89.761 6.474 89.893 6.33C90.037 6.186 90.217 6.114 90.433 6.114C90.637 6.114 90.811 6.186 90.955 6.33C91.099 6.474 91.171 6.648 91.171 6.852V8.49L90.865 8.238C91.417 8.25 92.005 8.364 92.629 8.58C93.253 8.784 93.787 9.078 94.231 9.462C94.375 9.582 94.465 9.72 94.501 9.876C94.549 10.032 94.549 10.182 94.501 10.326C94.465 10.47 94.393 10.59 94.285 10.686C94.177 10.782 94.039 10.836 93.871 10.848C93.703 10.86 93.523 10.8 93.331 10.668C92.947 10.404 92.521 10.194 92.053 10.038C91.597 9.882 91.051 9.804 90.415 9.804C89.575 9.804 88.909 10.002 88.417 10.398C87.925 10.794 87.679 11.31 87.679 11.946C87.679 12.426 87.829 12.816 88.129 13.116C88.429 13.404 88.933 13.626 89.641 13.782L91.531 14.178C92.683 14.43 93.535 14.82 94.087 15.348C94.639 15.876 94.915 16.578 94.915 17.454C94.915 18.138 94.741 18.744 94.393 19.272C94.045 19.788 93.565 20.202 92.953 20.514C92.353 20.814 91.657 21 90.865 21.072L91.171 20.73V22.458C91.171 22.662 91.099 22.836 90.955 22.98C90.823 23.124 90.649 23.196 90.433 23.196ZM101.226 23.196C101.01 23.196 100.83 23.124 100.686 22.98C100.554 22.836 100.488 22.662 100.488 22.458V20.748L100.848 21.09C100.008 21.078 99.252 20.97 98.58 20.766C97.908 20.55 97.344 20.292 96.888 19.992C96.72 19.884 96.6 19.746 96.528 19.578C96.456 19.41 96.432 19.242 96.456 19.074C96.492 18.906 96.564 18.762 96.672 18.642C96.78 18.522 96.912 18.45 97.068 18.426C97.224 18.402 97.404 18.45 97.608 18.57C97.98 18.81 98.442 19.026 98.994 19.218C99.558 19.41 100.242 19.506 101.046 19.506C101.694 19.506 102.222 19.422 102.63 19.254C103.05 19.086 103.356 18.858 103.548 18.57C103.752 18.282 103.854 17.946 103.854 17.562C103.854 17.25 103.782 16.98 103.638 16.752C103.506 16.524 103.284 16.332 102.972 16.176C102.66 16.008 102.246 15.87 101.73 15.762L99.876 15.366C98.784 15.126 97.968 14.73 97.428 14.178C96.9 13.626 96.636 12.9 96.636 12C96.636 11.292 96.804 10.662 97.14 10.11C97.488 9.558 97.968 9.12 98.58 8.796C99.204 8.472 99.93 8.286 100.758 8.238L100.488 8.49V6.852C100.488 6.648 100.554 6.474 100.686 6.33C100.83 6.186 101.01 6.114 101.226 6.114C101.43 6.114 101.604 6.186 101.748 6.33C101.892 6.474 101.964 6.648 101.964 6.852V8.49L101.658 8.238C102.21 8.25 102.798 8.364 103.422 8.58C104.046 8.784 104.58 9.078 105.024 9.462C105.168 9.582 105.258 9.72 105.294 9.876C105.342 10.032 105.342 10.182 105.294 10.326C105.258 10.47 105.186 10.59 105.078 10.686C104.97 10.782 104.832 10.836 104.664 10.848C104.496 10.86 104.316 10.8 104.124 10.668C103.74 10.404 103.314 10.194 102.846 10.038C102.39 9.882 101.844 9.804 101.208 9.804C100.368 9.804 99.702 10.002 99.21 10.398C98.718 10.794 98.472 11.31 98.472 11.946C98.472 12.426 98.622 12.816 98.922 13.116C99.222 13.404 99.726 13.626 100.434 13.782L102.324 14.178C103.476 14.43 104.328 14.82 104.88 15.348C105.432 15.876 105.708 16.578 105.708 17.454C105.708 18.138 105.534 18.744 105.186 19.272C104.838 19.788 104.358 20.202 103.746 20.514C103.146 20.814 102.45 21 101.658 21.072L101.964 20.73V22.458C101.964 22.662 101.892 22.836 101.748 22.98C101.616 23.124 101.442 23.196 101.226 23.196Z" fill="#FFCC4D"/>
</svg>
