<svg width="21" height="19" viewBox="0 0 21 19" fill="none" xmlns="http://www.w3.org/2000/svg">
<path d="M11.4695 18.0097L11.4676 18.0115C10.9005 18.5264 10.0259 18.5262 9.45884 18.0039L9.45601 18.0013L9.34152 17.8972L9.34049 17.8963C6.59603 15.4132 4.37735 13.4019 2.85399 11.5136C1.33917 9.63591 0.57305 7.95244 0.633897 6.13167C0.69015 4.54252 1.50564 3.0213 2.81355 2.1308L2.81387 2.13059C5.27803 0.450474 8.34318 1.22001 10.0109 3.17197L10.4565 3.69353L10.9021 3.17197C12.571 1.21858 15.6355 0.44153 18.0978 2.12973L18.0994 2.1308C19.4075 3.02139 20.223 4.54285 20.2791 6.13219L20.2791 6.13265C20.3448 7.95256 19.5793 9.63555 18.0628 11.5164C16.5435 13.4006 14.3329 15.4091 11.6019 17.8904L11.5736 17.9161L11.5716 17.9179L11.4695 18.0097Z" stroke="#232327" stroke-width="1.17219"/>
</svg>
