<svg width="33" height="34" viewBox="0 0 33 34" fill="none" xmlns="http://www.w3.org/2000/svg">
<path d="M16.272 27.4085L16.2688 27.4115C15.6083 28.0111 14.589 28.0108 13.9287 27.4026L13.9287 27.4026L13.9239 27.3982L13.773 27.261L13.7712 27.2594C10.1497 23.9828 7.24128 21.3454 5.24742 18.8739C3.26813 16.4204 2.29444 14.2544 2.37198 11.932C2.44371 9.90774 3.48343 7.97107 5.14507 6.83974L5.14561 6.83937C8.28287 4.70033 12.1949 5.67378 14.3289 8.17155L15.0892 9.06145L15.8495 8.17155C17.9856 5.67135 21.8966 4.68911 25.0307 6.83792L25.0334 6.83974C26.6953 7.97123 27.7351 9.90829 27.8065 11.9329L27.8066 11.9337C27.8903 14.2546 26.9178 16.4198 24.936 18.8775C22.9449 21.3469 20.0424 23.984 16.4324 27.264L16.4092 27.2851L16.4057 27.2883L16.272 27.4085Z" stroke="#99ABC6" stroke-opacity="0.53" stroke-width="2"/>
</svg>
