<svg width="25" height="25" viewBox="0 0 25 25" fill="none" xmlns="http://www.w3.org/2000/svg">
<g clip-path="url(#clip0_996_3967)">
<path d="M12.5002 23.6986C18.6846 23.6986 23.6981 18.6851 23.6981 12.5007C23.6981 6.31621 18.6846 1.30273 12.5002 1.30273C6.31572 1.30273 1.30225 6.31621 1.30225 12.5007C1.30225 18.6851 6.31572 23.6986 12.5002 23.6986Z" stroke="#14BA9C" stroke-width="1.5" stroke-linecap="round" stroke-linejoin="round"/>
<path d="M15.0781 9.9224C13.6542 8.49844 6.82812 6.82812 6.82812 6.82812C6.82812 6.82812 8.49844 13.6547 9.92187 15.0786C10.6056 15.7624 11.533 16.1465 12.5 16.1465C13.467 16.1465 14.3944 15.7624 15.0781 15.0786C15.7619 14.3949 16.146 13.4675 16.146 12.5005C16.146 11.5335 15.7619 10.6062 15.0781 9.9224V9.9224Z" stroke="#14BA9C" stroke-width="1.5" stroke-linecap="round" stroke-linejoin="round"/>
</g>
<defs>
<clipPath id="clip0_996_3967">
<rect width="25" height="25" fill="white"/>
</clipPath>
</defs>
</svg>
