<svg width="25" height="25" viewBox="0 0 25 25" fill="none" xmlns="http://www.w3.org/2000/svg">
<path d="M21.5141 8.24736C21.2649 7.71382 20.8606 7.26776 20.3541 6.96736L13.8841 2.96736C13.4095 2.67335 12.8624 2.51758 12.3041 2.51758C11.7458 2.51758 11.1987 2.67335 10.7241 2.96736L4.2541 6.96736C3.76363 7.27973 3.37452 7.72791 3.1341 8.25736C2.88435 8.78682 2.80068 9.37946 2.8941 9.95736L4.5741 19.9574C4.68183 20.6547 5.03676 21.29 5.5741 21.7474C6.10717 22.1938 6.77878 22.4413 7.4741 22.4474H17.0941C17.8032 22.4506 18.4905 22.2026 19.0341 21.7474C19.5743 21.2924 19.9299 20.6559 20.0341 19.9574L21.7141 9.95736C21.8159 9.38006 21.7464 8.78558 21.5141 8.24736ZM15.6541 17.9474H8.9641C8.69888 17.9474 8.44453 17.842 8.25699 17.6545C8.06946 17.4669 7.9641 17.2126 7.9641 16.9474C7.9641 16.6821 8.06946 16.4278 8.25699 16.2403C8.44453 16.0527 8.69888 15.9474 8.9641 15.9474H15.6541C15.9193 15.9474 16.1737 16.0527 16.3612 16.2403C16.5487 16.4278 16.6541 16.6821 16.6541 16.9474C16.6541 17.2126 16.5487 17.4669 16.3612 17.6545C16.1737 17.842 15.9193 17.9474 15.6541 17.9474Z" fill="#14BA9C"/>
</svg>
