<svg width="25" height="25" viewBox="0 0 25 25" fill="none" xmlns="http://www.w3.org/2000/svg">
<path d="M21.5143 8.24736C21.2651 7.71382 20.8609 7.26776 20.3543 6.96736L13.8843 2.96736C13.4098 2.67335 12.8626 2.51758 12.3043 2.51758C11.7461 2.51758 11.1989 2.67335 10.7243 2.96736L4.25434 6.96736C3.76388 7.27973 3.37477 7.72791 3.13434 8.25736C2.88459 8.78682 2.80093 9.37946 2.89434 9.95736L4.57434 19.9574C4.68207 20.6547 5.03701 21.29 5.57434 21.7474C6.10741 22.1938 6.77902 22.4413 7.47434 22.4474H17.0943C17.8034 22.4506 18.4907 22.2026 19.0343 21.7474C19.5745 21.2924 19.9301 20.6559 20.0343 19.9574L21.7143 9.95736C21.8162 9.38006 21.7466 8.78558 21.5143 8.24736ZM15.6543 17.9474H8.96434C8.69913 17.9474 8.44477 17.842 8.25724 17.6545C8.0697 17.4669 7.96434 17.2126 7.96434 16.9474C7.96434 16.6821 8.0697 16.4278 8.25724 16.2403C8.44477 16.0527 8.69913 15.9474 8.96434 15.9474H15.6543C15.9196 15.9474 16.1739 16.0527 16.3614 16.2403C16.549 16.4278 16.6543 16.6821 16.6543 16.9474C16.6543 17.2126 16.549 17.4669 16.3614 17.6545C16.1739 17.842 15.9196 17.9474 15.6543 17.9474Z" fill="#293032"/>
</svg>
