<svg width="27" height="27" viewBox="0 0 27 27" fill="none" xmlns="http://www.w3.org/2000/svg">
<path d="M12.5367 1.92773C12.281 1.92773 12.0357 2.02933 11.8549 2.21017C11.674 2.39101 11.5724 2.63628 11.5724 2.89202C11.5724 3.14776 11.674 3.39303 11.8549 3.57387C12.0357 3.75471 12.281 3.85631 12.5367 3.85631H17.3572V6.26702C17.3572 7.06545 17.0525 7.63341 16.5858 8.01913C16.0978 8.42124 15.3659 8.67773 14.4643 8.67773C14.2086 8.67773 13.9633 8.77933 13.7825 8.96017C13.6016 9.14101 13.5 9.38628 13.5 9.64202C13.5 9.89776 13.6016 10.143 13.7825 10.3239C13.9633 10.5047 14.2086 10.6063 14.4643 10.6063C15.7131 10.6063 16.9107 10.2524 17.8143 9.50606C18.7361 8.74234 19.2858 7.62281 19.2858 6.26702V2.89202C19.2858 2.63628 19.1842 2.39101 19.0033 2.21017C18.8225 2.02933 18.5772 1.92773 18.3215 1.92773H12.5367ZM10.5378 7.3422C10.4651 7.16534 10.3415 7.01407 10.1827 6.90761C10.0239 6.80115 9.83699 6.74431 9.64579 6.74431C9.45459 6.74431 9.26771 6.80115 9.10889 6.90761C8.95007 7.01407 8.82648 7.16534 8.75383 7.3422L2.0019 23.7389C1.90446 23.9755 1.90499 24.2411 2.00336 24.4772C2.10174 24.7134 2.28991 24.9008 2.52647 24.9983C2.76303 25.0957 3.02862 25.0952 3.26479 24.9968C3.50097 24.8984 3.68839 24.7103 3.78583 24.4737L5.52829 20.2405H13.7633L15.5058 24.4737C15.554 24.5908 15.6248 24.6973 15.7142 24.7871C15.8036 24.8768 15.9098 24.9481 16.0268 24.9968C16.1437 25.0455 16.2691 25.0707 16.3958 25.071C16.5225 25.0712 16.648 25.0465 16.7651 24.9983C16.8822 24.95 16.9887 24.8792 17.0785 24.7898C17.1682 24.7004 17.2395 24.5942 17.2882 24.4772C17.3369 24.3603 17.3621 24.2349 17.3624 24.1082C17.3626 23.9815 17.3379 23.856 17.2897 23.7389L15.3997 19.1489C15.3778 18.9839 15.3133 18.8273 15.2126 18.6947L10.5378 7.3422ZM12.9687 18.3129H6.3219L9.64579 10.2418L12.9687 18.3129ZM21.2143 1.92773C21.4701 1.92773 21.7153 2.02933 21.8962 2.21017C22.077 2.39101 22.1786 2.63628 22.1786 2.89202V7.71345H24.1072C24.3629 7.71345 24.6082 7.81504 24.789 7.99588C24.9699 8.17672 25.0715 8.42199 25.0715 8.67773C25.0715 8.93348 24.9699 9.17875 24.789 9.35959C24.6082 9.54043 24.3629 9.64202 24.1072 9.64202H22.1786V18.3206C22.1786 18.5763 22.077 18.8216 21.8962 19.0024C21.7153 19.1833 21.4701 19.2849 21.2143 19.2849C20.9586 19.2849 20.7133 19.1833 20.5325 19.0024C20.3516 18.8216 20.25 18.5763 20.25 18.3206V2.89202C20.25 2.63628 20.3516 2.39101 20.5325 2.21017C20.7133 2.02933 20.9586 1.92773 21.2143 1.92773Z" fill="#14BA9C"/>
</svg>
