<svg width="25" height="25" viewBox="0 0 25 25" fill="none" xmlns="http://www.w3.org/2000/svg">
<path fill-rule="evenodd" clip-rule="evenodd" d="M8.89157 7.625H15.5476C18.9216 7.625 20.6096 7.625 21.5576 8.612C22.5056 9.599 22.2816 11.123 21.8356 14.172L21.4136 17.064C21.0636 19.455 20.8886 20.651 19.9916 21.367C19.0946 22.083 17.7716 22.083 15.1246 22.083H9.31457C6.66857 22.083 5.34457 22.083 4.44757 21.367C3.55057 20.651 3.37557 19.455 3.02557 17.064L2.60357 14.172C2.15657 11.123 1.93357 9.599 2.88157 8.612C3.82957 7.625 5.51757 7.625 8.89157 7.625ZM8.21957 18.083C8.21957 17.669 8.59257 17.333 9.05257 17.333H15.3866C15.8466 17.333 16.2196 17.669 16.2196 18.083C16.2196 18.497 15.8466 18.833 15.3866 18.833H9.05257C8.59257 18.833 8.21957 18.497 8.21957 18.083Z" fill="#14BA9C"/>
<path opacity="0.4" d="M8.72967 2.08203H15.7097C15.9427 2.08203 16.1197 2.08203 16.2767 2.09703C17.3847 2.20603 18.2907 2.87203 18.6757 3.76903H5.76367C6.14867 2.87203 7.05567 2.20603 8.16367 2.09703C8.31867 2.08203 8.49767 2.08203 8.72967 2.08203Z" fill="#14BA9C"/>
<path opacity="0.7" d="M6.5297 4.80469C5.1397 4.80469 3.9997 5.64469 3.6197 6.75769L3.5957 6.82769C3.99909 6.71115 4.41103 6.62656 4.8277 6.57469C5.9077 6.43669 7.2737 6.43669 8.8597 6.43669H15.7517C17.3377 6.43669 18.7037 6.43669 19.7837 6.57469C20.2037 6.62869 20.6177 6.70769 21.0157 6.82769L20.9927 6.75769C20.6127 5.64369 19.4727 4.80469 18.0817 4.80469H6.5297Z" fill="#14BA9C"/>
</svg>
