<svg width="23" height="23" viewBox="0 0 23 23" fill="none" xmlns="http://www.w3.org/2000/svg">
<path d="M19.4063 0H3.59375C1.60425 0 0 1.61 0 3.59375V19.4062C0 21.39 1.61 23 3.59375 23H19.4063C21.39 23 23 21.39 23 19.4062V3.59375C23 1.61 21.39 0 19.4063 0ZM8.3375 17.25H5.89375V9.5565H8.3375V17.25ZM7.1185 8.48125C6.325 8.48125 5.75 7.90625 5.75 7.11275C5.75 6.31925 6.394 5.74425 7.1185 5.74425C7.912 5.74425 8.487 6.31925 8.487 7.11275C8.487 7.90625 7.912 8.48125 7.1185 8.48125ZM14.812 17.25V13.0812C14.812 11.8622 14.306 11.5 13.593 11.5C12.88 11.5 12.1555 12.075 12.1555 13.156V17.25H9.71175V9.5565H12.0117V10.6375C12.2302 10.1315 13.0928 9.34375 14.3118 9.34375C15.6803 9.34375 17.1177 10.1373 17.1177 12.5063V17.25H14.8177H14.812Z" fill="#0077B7"/>
</svg>
