<svg width="23" height="22" viewBox="0 0 23 22" fill="none" xmlns="http://www.w3.org/2000/svg">
<path d="M11.8368 1.00781C10.2468 1.00781 8.72197 1.63943 7.59769 2.76371C6.47341 3.88799 5.8418 5.41284 5.8418 7.00281C5.8418 8.42063 6.14355 9.34886 6.96586 10.375L11.8368 15.9953L16.7077 10.375C17.53 9.34886 17.8318 8.42063 17.8318 7.00281C17.8318 5.41284 17.2002 3.88799 16.0759 2.76371C14.9516 1.63943 13.4268 1.00781 11.8368 1.00781Z" stroke="#232327" stroke-width="2" stroke-linecap="round" stroke-linejoin="round"/>
<path d="M4.84271 14.1406C2.99326 14.867 1.84521 15.8772 1.84521 16.9952C1.84521 19.2034 6.31848 20.9919 11.8369 20.9919C17.3553 20.9919 21.8285 19.2034 21.8285 16.9952C21.8285 15.8772 20.6805 14.867 18.831 14.1406" stroke="#232327" stroke-width="2" stroke-linecap="round" stroke-linejoin="round"/>
<path d="M11.8371 8.00224C12.3889 8.00224 12.8362 7.5549 12.8362 7.00307C12.8362 6.45125 12.3889 6.00391 11.8371 6.00391C11.2852 6.00391 10.8379 6.45125 10.8379 7.00307C10.8379 7.5549 11.2852 8.00224 11.8371 8.00224Z" stroke="#232327" stroke-width="2" stroke-linecap="round" stroke-linejoin="round"/>
</svg>
