<svg width="28" height="28" viewBox="0 0 28 28" fill="none" xmlns="http://www.w3.org/2000/svg">
<path d="M24.2942 5.93359L10.9298 5.93359" stroke="white" stroke-width="2.22741" stroke-linecap="round"/>
<path d="M6.47516 5.93359L4.24775 5.93359" stroke="white" stroke-width="2.22741" stroke-linecap="round"/>
<path d="M24.2942 13.7305L22.0668 13.7305" stroke="white" stroke-width="2.22741" stroke-linecap="round"/>
<path d="M6.47516 21.5254L4.24775 21.5254" stroke="white" stroke-width="2.22741" stroke-linecap="round"/>
<path d="M17.6121 13.7305L4.24763 13.7305" stroke="white" stroke-width="2.22741" stroke-linecap="round"/>
<path d="M24.2942 21.5254L10.9298 21.5254" stroke="white" stroke-width="2.22741" stroke-linecap="round"/>
<path d="M19.8395 15.9568C18.6093 15.9568 17.6121 14.9595 17.6121 13.7294C17.6121 12.4992 18.6093 11.502 19.8395 11.502C21.0697 11.502 22.0669 12.4992 22.0669 13.7294C22.0669 14.9595 21.0697 15.9568 19.8395 15.9568Z" stroke="white" stroke-width="2.22741"/>
<path d="M8.70259 23.7536C7.47243 23.7536 6.47518 22.7564 6.47518 21.5262C6.47518 20.2961 7.47243 19.2988 8.70259 19.2988C9.93275 19.2988 10.93 20.2961 10.93 21.5262C10.93 22.7564 9.93275 23.7536 8.70259 23.7536Z" stroke="white" stroke-width="2.22741"/>
<path d="M8.70259 8.16184C7.47243 8.16184 6.47518 7.1646 6.47518 5.93444C6.47518 4.70427 7.47243 3.70703 8.70259 3.70703C9.93275 3.70703 10.93 4.70427 10.93 5.93444C10.93 7.1646 9.93275 8.16184 8.70259 8.16184Z" stroke="white" stroke-width="2.22741"/>
</svg>
