<svg width="29" height="28" viewBox="0 0 29 28" fill="none" xmlns="http://www.w3.org/2000/svg">
<path d="M5.25732 6.93276C5.25732 6.62632 5.37906 6.33244 5.59574 6.11576C5.81242 5.89908 6.10631 5.77734 6.41274 5.77734H22.5886C22.895 5.77734 23.1889 5.89908 23.4056 6.11576C23.6223 6.33244 23.744 6.62632 23.744 6.93276C23.744 7.2392 23.6223 7.53308 23.4056 7.74976C23.1889 7.96645 22.895 8.08818 22.5886 8.08818H6.41274C6.10631 8.08818 5.81242 7.96645 5.59574 7.74976C5.37906 7.53308 5.25732 7.2392 5.25732 6.93276ZM5.25732 20.7978C5.25732 20.4913 5.37906 20.1974 5.59574 19.9808C5.81242 19.7641 6.10631 19.6423 6.41274 19.6423H22.5886C22.895 19.6423 23.1889 19.7641 23.4056 19.9808C23.6223 20.1974 23.744 20.4913 23.744 20.7978C23.744 21.1042 23.6223 21.3981 23.4056 21.6148C23.1889 21.8314 22.895 21.9532 22.5886 21.9532H6.41274C6.10631 21.9532 5.81242 21.8314 5.59574 21.6148C5.37906 21.3981 5.25732 21.1042 5.25732 20.7978ZM13.3452 12.7098C13.0388 12.7098 12.7449 12.8316 12.5282 13.0483C12.3116 13.2649 12.1898 13.5588 12.1898 13.8653C12.1898 14.1717 12.3116 14.4656 12.5282 14.6823C12.7449 14.8989 13.0388 15.0207 13.3452 15.0207H22.5886C22.895 15.0207 23.1889 14.8989 23.4056 14.6823C23.6223 14.4656 23.744 14.1717 23.744 13.8653C23.744 13.5588 23.6223 13.2649 23.4056 13.0483C23.1889 12.8316 22.895 12.7098 22.5886 12.7098H13.3452Z" fill="white"/>
</svg>
