<svg width="26" height="26" viewBox="0 0 26 26" fill="none" xmlns="http://www.w3.org/2000/svg">
<circle cx="13" cy="21.7708" r="1.477" transform="rotate(1.70614 13 21.7708)" stroke="#1E1E1E" stroke-width="1.5"/>
<path d="M7.98595 7.24457C8.3564 4.75989 10.4905 2.92117 13.0027 2.92226C15.5145 2.92336 17.6469 4.7635 18.0155 7.24815L18.4789 10.3711C18.7707 12.6202 19.5971 14.2189 20.8737 15.9315C21.4202 16.6646 20.8992 17.612 20.1088 17.6117L5.85919 17.6066C5.06668 17.6063 4.56265 16.6692 5.10575 15.955C6.41734 14.2302 7.28936 12.6242 7.52194 10.3568L7.98595 7.24457Z" stroke="#1E1E1E" stroke-width="1.5"/>
<circle cx="18.3171" cy="4.86819" r="4.1128" transform="rotate(1.70614 18.3171 4.86819)" fill="#14BA9C"/>
<path d="M17.3469 6.63477C17.2569 6.63477 17.1919 6.61477 17.1519 6.57477C17.1119 6.53143 17.0919 6.4731 17.0919 6.39977C17.0919 6.3531 17.1036 6.3081 17.1269 6.26477C17.1502 6.22143 17.1836 6.17643 17.2269 6.12977L18.2919 4.98977C18.4552 4.81643 18.5719 4.6581 18.6419 4.51477C18.7152 4.3681 18.7519 4.22143 18.7519 4.07477C18.7519 3.8881 18.6952 3.74643 18.5819 3.64977C18.4686 3.5531 18.3019 3.50477 18.0819 3.50477C17.9486 3.50477 17.8202 3.52477 17.6969 3.56477C17.5736 3.60477 17.4502 3.66977 17.3269 3.75977C17.2769 3.7931 17.2302 3.8081 17.1869 3.80477C17.1436 3.80143 17.1052 3.78477 17.0719 3.75477C17.0419 3.72477 17.0219 3.6881 17.0119 3.64477C17.0019 3.60143 17.0036 3.55643 17.0169 3.50977C17.0302 3.4631 17.0619 3.4231 17.1119 3.38977C17.2486 3.28643 17.4069 3.20643 17.5869 3.14977C17.7669 3.0931 17.9502 3.06477 18.1369 3.06477C18.3802 3.06477 18.5852 3.1031 18.7519 3.17977C18.9219 3.2531 19.0502 3.36143 19.1369 3.50477C19.2236 3.6481 19.2669 3.8231 19.2669 4.02977C19.2669 4.16977 19.2436 4.30643 19.1969 4.43977C19.1536 4.5731 19.0852 4.70977 18.9919 4.84977C18.9019 4.98643 18.7836 5.13143 18.6369 5.28477L17.6269 6.34477V6.19977H19.2169C19.2902 6.19977 19.3469 6.2181 19.3869 6.25477C19.4269 6.29143 19.4469 6.34477 19.4469 6.41477C19.4469 6.48477 19.4269 6.53977 19.3869 6.57977C19.3469 6.61643 19.2902 6.63477 19.2169 6.63477H17.3469Z" fill="#1E1E1E"/>
</svg>
