<svg width="25" height="26" viewBox="0 0 25 26" fill="none" xmlns="http://www.w3.org/2000/svg">
<path d="M20.2065 13.4761V11.375H18.6522V13.8125C18.6522 14.028 18.7341 14.2346 18.8799 14.3869L20.9837 16.5864V17.875H3.88589V16.5864L5.9897 14.3869C6.13546 14.2346 6.21737 14.028 6.21741 13.8125V10.5625C6.21525 9.42077 6.50132 8.29866 7.04672 7.30951C7.59213 6.32035 8.37757 5.49919 9.3237 4.92896C10.2698 4.35872 11.3431 4.05961 12.4352 4.06183C13.5273 4.06406 14.5995 4.36754 15.5435 4.94162V3.12569C14.8037 2.78324 14.0169 2.56497 13.212 2.47894V0.8125H11.6576V2.47812C9.74156 2.68201 7.96587 3.62141 6.6739 5.11467C5.38193 6.60794 4.66547 8.54899 4.66306 10.5625V13.4761L2.55925 15.6756C2.4135 15.8279 2.33159 16.0345 2.33154 16.25V18.6875C2.33154 18.903 2.41342 19.1097 2.55917 19.262C2.70492 19.4144 2.9026 19.5 3.10872 19.5H8.54893V20.3125C8.54893 21.3899 8.95834 22.4233 9.68708 23.1851C10.4158 23.947 11.4042 24.375 12.4348 24.375C13.4654 24.375 14.4538 23.947 15.1825 23.1851C15.9113 22.4233 16.3207 21.3899 16.3207 20.3125V19.5H21.7609C21.967 19.5 22.1647 19.4144 22.3104 19.262C22.4562 19.1097 22.5381 18.903 22.5381 18.6875V16.25C22.538 16.0345 22.4561 15.8279 22.3104 15.6756L20.2065 13.4761ZM14.7663 20.3125C14.7663 20.959 14.5207 21.579 14.0834 22.0361C13.6462 22.4932 13.0532 22.75 12.4348 22.75C11.8164 22.75 11.2234 22.4932 10.7862 22.0361C10.3489 21.579 10.1033 20.959 10.1033 20.3125V19.5H14.7663V20.3125Z" fill="#14BA9C"/>
<path d="M20.2064 9.75C21.9232 9.75 23.315 8.29493 23.315 6.5C23.315 4.70507 21.9232 3.25 20.2064 3.25C18.4895 3.25 17.0977 4.70507 17.0977 6.5C17.0977 8.29493 18.4895 9.75 20.2064 9.75Z" fill="#14BA9C"/>
</svg>
