<svg width="361" height="362" viewBox="0 0 361 362" fill="none" xmlns="http://www.w3.org/2000/svg">
<path d="M77.6875 231.251H104.546C111.261 231.251 116.676 226.847 116.676 221.432C116.676 216.378 112.055 212.263 105.99 211.685C106.134 211.035 106.207 210.385 106.207 209.663C106.207 203.96 100.503 199.339 93.4271 199.339C91.5499 199.339 89.6727 199.7 87.9399 200.35C87.9399 200.205 87.9399 200.133 87.9399 199.989C87.9399 194.285 82.2361 189.664 75.1605 189.664C69.9621 189.664 65.4857 192.191 63.4641 195.873C62.0923 195.657 60.6483 195.512 59.2765 195.512C48.0133 195.512 38.8439 202.66 38.1219 211.613C31.4795 211.685 26.1367 216.089 26.1367 221.432C26.1367 226.775 31.5517 231.251 38.2663 231.251" fill="#A0BFCC"/>
<path d="M104.546 231.757H77.6876C77.3988 231.757 77.1822 231.541 77.1822 231.252C77.1822 230.963 77.3988 230.746 77.6876 230.746H104.546C110.972 230.746 116.17 226.559 116.17 221.36C116.17 216.667 111.766 212.696 105.99 212.047C105.846 212.047 105.701 211.974 105.629 211.83C105.557 211.686 105.485 211.541 105.557 211.397C105.701 210.747 105.773 210.169 105.773 209.52C105.773 204.105 100.286 199.7 93.4994 199.7C91.6944 199.7 89.8894 200.061 88.1566 200.711C88.0122 200.783 87.7956 200.783 87.6512 200.639C87.5068 200.567 87.4346 200.35 87.4346 200.206V200.061C87.4346 199.989 87.4346 199.989 87.4346 199.917C87.4346 194.502 81.9474 190.098 75.1606 190.098C70.251 190.098 65.8468 192.408 63.8974 196.018C63.8252 196.235 63.6086 196.307 63.392 196.307C62.0202 196.09 60.6484 195.946 59.2766 195.946C48.3744 195.946 39.2772 202.805 38.6274 211.541C38.6274 211.758 38.483 211.974 38.1942 212.047C31.8406 212.119 26.7144 216.306 26.7144 221.433C26.7144 226.559 31.9128 230.819 38.3386 230.819C38.6274 230.819 38.844 231.035 38.844 231.324C38.844 231.613 38.6274 231.829 38.3386 231.829C31.3352 231.829 25.7036 227.209 25.7036 221.433C25.7036 215.945 31.0464 211.325 37.761 211.108C38.7718 202.011 48.1578 195.007 59.3488 195.007C60.6484 195.007 62.0202 195.08 63.3198 195.296C65.4858 191.542 70.1788 189.159 75.305 189.159C82.4528 189.159 88.301 193.852 88.5176 199.628C90.106 199.123 91.8388 198.834 93.4994 198.834C100.792 198.834 106.784 203.744 106.784 209.664C106.784 210.169 106.712 210.747 106.64 211.252C112.705 212.047 117.181 216.379 117.181 221.433C117.181 227.136 111.549 231.757 104.546 231.757Z" fill="#A0BFCC"/>
<path d="M189.958 291.611C247.976 291.611 295.009 244.578 295.009 186.56C295.009 128.542 247.976 81.5088 189.958 81.5088C131.94 81.5088 84.9072 128.542 84.9072 186.56C84.9072 244.578 131.94 291.611 189.958 291.611Z" fill="white"/>
<path d="M189.958 81.4366C248.007 81.4366 295.009 128.511 295.009 186.488C295.009 244.464 247.935 291.539 189.958 291.539C131.982 291.539 84.9073 244.536 84.9073 186.56C84.9073 128.511 131.91 81.4366 189.958 81.4366ZM189.958 80.498C131.476 80.498 83.9688 128.078 83.9688 186.488C83.9688 244.897 131.549 292.477 189.958 292.477C248.368 292.477 295.948 244.897 295.948 186.488C295.948 128.078 248.44 80.498 189.958 80.498Z" fill="#FFACAC"/>
<path d="M268.728 117.031C267.934 117.319 267.14 117.392 266.274 117.175L267.645 115.875C265.768 113.782 263.747 111.76 261.725 109.811C261.725 111.255 262.591 112.482 264.108 113.565C261.869 113.709 260.137 112.338 258.187 111.76C255.877 111.182 253.494 110.749 251.184 110.46L254.649 112.987C254 113.276 253.35 113.421 252.628 113.637C251.978 112.265 251.112 113.348 250.39 113.348C248.657 113.276 246.78 115.226 245.48 113.204C244.83 113.276 244.253 113.421 243.675 113.565C242.087 114.215 240.354 114.72 239.126 115.731C237.538 117.031 237.033 117.175 235.805 115.298L237.394 114.72L237.466 114.07L234.217 113.348C234.072 114.143 234.072 114.865 234.072 115.659C234.217 116.164 234.433 116.597 234.722 117.031C233.784 117.103 232.773 117.247 231.834 117.464C230.896 117.753 230.029 118.186 229.163 118.547L229.957 120.135L225.625 119.413C225.553 119.558 225.553 119.702 225.481 119.846L227.141 120.929C224.614 121.651 223.098 120.352 223.098 117.825L220.932 116.67C221.726 116.597 222.448 116.67 223.17 116.958C225.553 117.464 227.935 118.041 230.246 116.886C231.401 116.236 231.401 115.442 230.246 114.865C228.874 114.07 227.358 113.493 225.842 112.987C223.17 112.265 220.427 111.688 217.683 111.11L218.116 110.388C216.889 110.027 215.589 109.738 214.29 109.594C213.568 109.522 212.846 110.027 212.051 110.316L212.701 108.872C211.402 109.45 210.391 110.388 209.669 110.244C208.008 109.883 206.709 111.182 204.976 110.821C203.965 110.605 202.665 112.121 201.943 112.554C201.149 112.626 200.355 112.843 199.561 113.06C198.839 113.493 198.189 113.998 197.539 114.576L200.211 113.926C198.983 115.442 197.684 117.175 196.24 118.763C195.229 119.846 194.146 121.29 192.846 121.651C191.041 122.157 189.453 123.095 188.081 124.395C187.576 124.973 187.287 125.767 187.359 126.489C187.503 127.572 187.864 128.727 188.298 129.738C188.803 130.893 190.103 131.543 191.33 131.11C192.341 130.604 193.713 129.305 194.29 129.593C195.229 130.027 195.662 131.543 196.384 132.626C196.528 132.842 196.601 133.059 196.745 133.276C197.323 134.503 197.25 137.463 199.633 134.431C201.51 134.864 201.51 133.276 201.655 132.265C201.727 131.182 202.377 130.243 203.315 129.738C204.615 129.016 204.615 127.861 203.46 127.066C202.016 126.056 201.871 125.045 203.099 123.745C203.748 123.023 204.759 122.662 205.481 122.012C206.203 121.363 206.636 120.424 207.358 119.846C208.225 119.124 209.163 118.619 210.174 118.258C210.752 118.114 211.546 118.619 212.412 118.908C210.68 120.28 209.38 121.29 208.153 122.301C207.431 122.879 206.636 126.344 207.286 126.705C208.441 127.427 209.813 127.861 211.185 128.005C212.412 128.077 213.64 127.427 214.867 127.211C215.517 127.211 216.095 127.355 216.672 127.572V128.366C215.589 128.438 214.506 128.583 213.423 128.655C212.557 128.727 211.69 128.799 210.896 128.944C209.741 129.232 209.597 129.954 210.391 130.749C211.474 131.759 211.113 132.409 210.246 133.203C208.08 131.398 207.575 131.615 207.07 134.359C206.997 135.008 206.997 135.658 207.07 136.308C206.203 136.669 205.048 137.608 204.543 137.319C202.232 136.236 200.716 138.257 198.694 138.402C198.045 136.813 196.962 137.752 195.879 137.824C195.157 137.752 194.507 137.463 194.001 136.958C193.713 136.741 193.496 135.875 193.713 135.658C194.651 134.647 194.796 133.492 194.29 132.12C191.547 133.637 191.547 133.637 192.196 136.452C192.269 137.03 192.341 137.608 192.341 138.185L188.225 139.918C186.926 141.218 185.987 142.156 185.049 143.095C184.688 143.384 184.182 143.6 184.038 144.033C183.171 145.694 181.655 146.344 179.922 145.622C179.995 146.199 180.067 146.705 180.139 147.355L176.529 147.21C177.54 148.726 178.839 149.737 179.922 150.965C181.366 152.625 180.211 154.43 179.995 156.091C176.962 156.307 173.858 154.936 170.897 156.741C172.558 160.134 169.742 163.672 171.764 167.065L173.785 166.849L174.941 168.437C177.973 167.715 180.933 167.282 181.872 164.61C181.872 163.6 181.655 162.878 181.944 162.444C182.738 161.506 183.532 160.639 184.399 159.773C184.904 159.195 185.843 158.473 185.771 157.824C185.698 155.874 186.854 155.946 187.937 156.38C188.875 156.885 190.03 156.668 190.752 155.874C191.402 155.369 192.124 154.863 192.918 154.43C193.424 155.08 193.929 155.802 194.507 156.452C195.373 157.679 196.456 158.762 197.539 159.701C199.489 161.145 201.871 162.228 201.005 165.405C201.51 164.683 202.088 163.961 202.377 163.455L201.727 161.145L204.037 162.156C203.965 161.795 203.965 161.506 203.893 161.434C202.521 160.567 201.727 158.979 199.994 158.546C199.489 158.473 199.055 157.896 198.767 157.463C198.261 156.813 197.9 155.946 197.395 155.297C196.023 153.708 196.312 152.77 198.117 152.336C198.261 152.77 198.478 153.131 198.767 153.492C198.983 153.708 199.633 153.708 199.633 153.853C200.138 155.73 201.655 156.235 203.099 157.102C203.965 157.607 205.12 158.69 205.12 159.484C205.12 163.166 207.792 165.477 209.091 168.365C209.669 167.571 210.174 166.632 210.607 165.766C210.752 165.188 210.68 164.538 210.463 164.033C210.03 163.166 209.524 162.372 209.019 161.65C209.813 161.722 210.607 162.011 210.896 161.722C212.34 160.423 212.268 160.351 213.495 161.073C213.423 162.444 213.279 163.6 213.207 164.61C213.784 165.405 214.217 166.704 215.012 167.065C216.022 167.498 216.817 169.231 218.549 167.715C219.127 167.21 220.86 168.22 222.159 168.509C222.232 168.509 222.304 168.509 222.304 168.437L225.408 166.993C224.759 169.809 224.253 172.119 223.748 174.357C223.387 175.801 222.881 176.884 221.004 176.957C220.282 176.957 219.632 177.751 219.271 177.967L222.159 180.928L220.788 182.011C220.86 182.155 220.932 182.372 221.004 182.588L223.748 181.794C224.109 182.444 224.686 183.31 225.12 184.177C225.842 185.693 226.564 187.209 227.213 188.653C227.719 189.88 228.224 191.108 228.73 192.407C229.018 193.346 229.307 194.285 229.668 195.151C230.174 196.162 230.823 197.1 231.473 197.967C233.35 200.71 233.278 203.887 233.856 206.992C234.072 208.075 234.506 208.508 235.516 208.003C237.321 207.136 239.054 206.27 240.787 205.187C242.592 204.032 244.108 202.443 245.913 201.36C247.574 200.349 249.162 199.411 250.317 197.822C250.606 197.389 250.895 196.884 251.184 196.378C251.473 195.873 251.761 195.44 252.05 194.934C254.144 192.624 253.711 190.53 250.895 189.158C250.317 188.797 249.884 188.292 249.668 187.642C249.451 186.848 249.379 185.982 249.379 185.187C248.585 186.054 247.863 186.92 247.213 187.931C246.419 189.519 245.119 188.581 244.036 188.797C243.892 188.148 243.819 187.426 243.675 186.776C243.603 186.343 243.458 185.909 243.242 184.971L242.52 186.704C241.437 184.465 240.354 182.155 239.271 179.772C241.004 177.823 241.365 177.895 242.592 180.206C242.736 180.567 242.881 180.928 243.025 181.216C243.892 183.743 246.563 185.043 249.09 184.177C249.307 184.104 249.523 184.032 249.74 183.888C250.606 186.126 250.823 186.415 253.35 186.559C255.877 186.704 258.62 186.559 260.931 186.559C262.375 188.22 263.819 189.88 265.191 191.469L263.963 191.974L266.779 194.429L268.223 192.624C268.873 196.162 269.45 200.277 270.461 204.32C271.472 208.364 272.411 212.262 274.288 216.161C276.743 213.273 277.97 209.591 277.681 205.837C277.609 204.898 277.537 203.815 278.042 203.093C278.981 201.721 280.425 200.783 281.291 199.483C282.663 197.389 285.262 196.306 285.768 193.563C285.84 193.202 286.562 192.841 287.067 192.768C288.439 192.407 289.811 192.191 291.255 191.902C291.471 192.696 291.616 193.996 292.266 194.862C293.132 195.945 293.854 197.173 294.359 198.472C294.793 194.501 295.009 190.53 295.009 186.559C295.081 160.784 285.695 136.164 268.728 117.031Z" fill="#130160"/>
<path d="M123.101 267.568C123.39 266.918 123.607 266.196 123.679 265.474C123.823 263.669 124.401 262.514 125.845 261.792C127.578 260.998 129.383 260.492 131.188 259.842C131.549 259.698 132.054 259.481 132.271 259.193C133.065 257.676 134.076 256.16 134.437 254.572C134.87 252.334 135.086 250.023 135.231 247.713C135.231 247.496 135.303 247.207 135.375 246.991C136.314 245.836 137.325 244.753 138.119 243.453C138.985 242.081 140.285 240.565 140.357 239.049C140.574 237.244 139.274 235.655 137.541 235.439C137.469 235.439 137.397 235.439 137.325 235.439C137.036 235.367 136.747 235.15 136.603 234.861C134.509 232.118 131.621 232.695 128.733 232.695C128.949 231.54 128.372 231.107 127.144 230.818C124.256 230.168 121.946 228.796 121.08 225.547C120.213 222.082 118.48 221.143 114.87 220.927C113.86 220.854 112.849 220.132 111.91 219.483C111.188 218.905 110.611 218.327 110.033 217.605C109.744 217.244 109.455 216.883 109.094 216.595C108.084 215.873 107.362 214.429 106.062 214.717C104.618 215.006 103.246 215.367 101.874 214.717C100.575 214.14 99.3474 213.562 97.8312 212.84L96.4594 216.667C95.5208 215.151 96.4594 213.707 96.676 212.118C93.8602 213.851 90.6834 214.79 90.0336 218.616L89.8892 218.544C96.0262 237.749 107.578 254.788 123.101 267.568Z" fill="#130160"/>
<path d="M102.019 152.337C105.557 153.131 108.156 151.326 110.972 150.027C111.477 149.738 111.838 149.232 111.91 148.655C111.838 147.933 111.477 147.355 110.899 146.922C110.105 146.561 109.239 146.417 108.445 146.272L109.528 145.55C108.156 144.756 106.64 144.106 105.484 143.023C104.835 142.446 105.051 141.146 104.618 140.28C103.824 138.908 102.741 137.68 101.802 136.236C100.864 137.608 100.575 139.991 98.2644 139.413C97.5424 139.269 96.9648 138.836 96.5316 138.258C90.0336 150.821 86.207 164.539 85.124 178.618C85.485 178.257 85.9182 177.896 86.3514 177.607C89.2394 175.946 89.3838 175.441 88.6618 172.12C88.5896 171.037 88.5896 169.954 88.6618 168.871C88.9506 170.026 89.1672 170.82 89.3838 171.614C90.1058 170.387 91.0444 169.448 91.1166 168.365C91.261 166.488 92.1996 166.055 93.8602 166.055C94.51 165.983 95.0876 165.838 95.7374 165.622L95.232 165.405C95.3042 164.467 95.0876 163.023 95.593 162.662C97.6146 161.434 99.7084 160.351 101.802 159.413L100.43 162.301L100.864 162.373L107.434 158.835L107.145 158.33L106.351 158.763C106.495 158.257 106.64 157.752 106.784 157.247C106.495 157.247 106.206 157.391 106.062 157.68C104.835 159.485 104.257 159.557 102.452 158.33C101.152 157.391 100.647 156.308 102.019 154.936C102.163 154.792 101.802 153.853 101.658 153.853C100.936 153.781 100.142 153.853 99.4196 153.998C98.481 154.359 97.5424 154.72 96.6038 155.153C98.2644 153.853 99.7806 151.832 102.019 152.337Z" fill="#130160"/>
<path d="M192.919 223.816C193.424 224.61 193.568 225.621 193.424 226.56C192.63 229.375 192.558 231.686 194.868 233.996C196.817 236.09 197.756 238.834 197.539 241.649C197.539 242.01 197.612 242.444 197.828 242.732C198.767 243.96 198.189 244.898 197.539 246.126C196.168 248.942 194.868 251.757 196.817 255.079C197.973 257.028 199.2 258.905 199.272 261.504C199.344 263.815 199.85 266.197 201.727 268.147C202.738 269.23 203.749 271.035 203.604 272.407C203.388 274.284 204.182 275.078 205.409 275.872C205.987 275.583 206.564 275.439 207.214 275.295C208.947 275.078 210.752 275.222 212.34 274.717C216.6 273.49 218.694 269.807 220.932 266.342C221.293 265.692 221.077 264.681 221.149 263.454C221.438 263.309 222.015 262.948 222.593 262.66C224.326 261.865 224.831 260.71 224.326 258.833C224.109 258.183 223.82 257.533 223.676 256.884C223.604 256.523 223.531 255.873 223.748 255.728C225.192 254.429 226.708 253.274 228.152 251.974C229.091 251.108 230.246 250.169 230.463 249.086C230.679 247.425 230.607 245.693 230.174 244.104C230.029 242.949 229.235 241.938 229.019 240.855C228.802 239.628 229.596 238.184 228.297 237.101C228.152 236.956 228.224 236.307 228.369 236.018C230.535 233.058 232.195 229.592 234.939 227.354C238.549 224.394 240.354 220.567 242.376 216.74C242.953 215.657 242.881 214.286 243.098 213.13C240.354 213.852 237.899 214.502 235.444 215.08C234.939 215.08 234.361 214.863 234.073 214.43C233.639 213.708 233.712 212.697 233.206 212.12C232.34 211.037 231.112 210.17 230.102 209.087C229.524 208.582 229.091 207.932 228.802 207.21C228.008 204.683 226.131 202.734 225.842 199.846C225.697 198.113 224.037 196.524 223.243 194.792C222.232 192.626 221.365 190.46 220.571 188.221C219.994 186.561 219.127 186.705 217.755 187.066C216.817 187.355 215.734 187.499 214.795 187.283C212.846 186.705 210.896 186.055 209.019 185.261C207.286 184.611 205.987 185.333 205.77 187.066C205.698 188.294 205.12 188.943 203.965 188.077C202.81 187.211 200.427 187.644 199.994 185.478C199.994 185.406 199.561 185.478 199.344 185.406C197.539 184.611 195.085 185.622 194.074 183.673L195.446 179.702C194.651 179.485 193.785 179.413 192.919 179.341C190.753 179.413 188.587 179.557 186.421 179.774C184.904 179.991 183.388 180.352 181.944 180.929C179.634 181.868 177.468 182.734 175.374 181.074C174.363 182.157 173.569 183.456 172.414 184.106C171.042 184.756 170.248 186.128 170.248 187.644C170.248 189.954 169.02 190.748 167.215 191.326C166.782 191.47 166.349 191.759 166.06 192.12C164.977 193.853 163.894 195.658 162.956 197.535C162.306 198.835 161.078 199.918 162.306 201.867C162.956 202.95 162.883 204.9 162.45 206.271C161.873 208.149 161.728 210.098 161.945 212.047C162.017 212.481 162.378 212.842 162.667 213.203C162.956 213.564 163.389 213.708 163.605 214.069C164.688 215.657 165.627 217.39 166.927 218.834C168.226 220.278 169.887 221.289 171.331 222.516C172.269 223.311 173.064 223.238 174.291 222.95C175.807 222.516 177.468 222.661 179.056 222.516C179.706 222.516 180.284 222.372 180.861 222.228C182.089 221.794 183.316 221.145 184.543 220.928C185.771 220.711 187.504 219.845 188.153 221.794C188.659 223.527 189.67 223.455 191.041 223.311C191.691 223.022 192.413 223.311 192.919 223.816Z" fill="#130160"/>
<path d="M113.426 114.576C113.787 114.432 114.148 114.288 114.509 114.071L117.614 116.237L113.643 115.659C113.643 115.876 113.571 116.093 113.571 116.237L117.325 117.681V119.558L112.849 121.869L114.942 123.529C114.87 124.107 114.87 124.612 114.942 125.19C116.386 128.15 117.83 131.038 119.347 133.926C119.78 134.648 120.43 135.298 121.152 135.659C122.235 136.236 123.318 136.742 124.473 137.175C125.339 137.536 126.133 137.969 126.35 136.525C126.567 135.081 127 133.709 127.289 132.338C127.361 132.121 127.433 131.76 127.65 131.616C129.238 130.821 129.527 129.522 129.455 127.861C129.455 127.356 130.393 126.345 130.754 126.345C133.787 126.634 135.736 125.045 137.397 122.807C137.83 122.157 138.624 121.363 139.274 121.363C143.317 121.147 146.638 119.342 150.248 117.248L145.483 116.742L146.783 115.154L150.609 116.742C150.898 114.721 150.176 113.854 148.732 113.277C147.071 112.627 146.927 111.761 147.793 110.605H152.198L150.898 109.161L153.714 108.728C153.136 108.151 152.775 107.79 152.486 107.429C154.725 105.912 151.837 105.19 151.981 104.035L154.725 103.891C154.219 103.097 153.93 102.23 153.353 101.941C152.559 101.58 151.62 101.797 150.609 101.725C153.136 97.9705 157.468 96.7431 161.367 94.7937C159.201 93.6385 156.674 93.4941 154.436 94.3605C152.414 94.9381 150.32 95.3713 148.227 95.5879L149.165 94.0717C148.371 94.1439 147.577 94.2883 146.71 94.3605C146.277 94.3605 145.844 94.3605 145.339 94.3605C145.339 94.0717 145.266 93.8551 145.266 93.5663L150.248 92.6999C148.588 92.2667 146.927 91.6169 145.339 91.2559C133.281 97.0319 122.451 104.902 113.426 114.576Z" fill="#130160"/>
<path d="M100.069 132.193C99.8527 132.554 99.6361 132.843 99.4917 133.204C99.9249 133.349 100.286 133.493 100.719 133.637C100.43 133.06 100.214 132.554 100.069 132.193Z" fill="#130160"/>
<path d="M105.773 123.817C105.412 124.251 105.123 124.612 104.762 125.045L105.773 123.817Z" fill="#130160"/>
<path d="M101.874 131.615C102.019 130.893 101.946 130.171 101.73 129.449C101.297 130.099 100.863 130.821 100.43 131.471L101.874 131.615Z" fill="#130160"/>
<path d="M234.073 257.532C233.423 258.976 233.567 261.72 234.722 262.731C235.661 263.525 237.033 263.38 237.755 262.514C237.899 262.297 238.044 262.081 238.116 261.864C239.199 258.254 240.21 254.572 241.148 250.962C241.22 250.673 241.148 250.312 241.365 250.096C242.303 248.724 242.015 246.919 240.787 245.764C238.693 247.352 238.477 250.818 234.65 250.673C234.65 251.901 234.722 253.056 234.65 254.211C234.65 255.294 234.434 256.449 234.073 257.532Z" fill="#130160"/>
<path d="M183.316 141.723C183.46 141.29 183.965 140.568 183.749 140.352C183.46 140.135 183.099 139.918 182.738 139.918L178.623 134.215C179.706 132.265 179.706 131.471 178.189 130.532C177.251 129.955 175.157 130.749 174.218 132.121C173.785 132.771 174.435 133.926 176.096 135.442C176.023 135.803 175.951 136.236 175.879 136.597C176.168 136.597 176.457 136.597 176.601 136.669C177.179 137.103 178.045 137.464 178.262 138.113C178.478 138.763 177.901 139.413 176.89 138.98C176.673 139.124 176.457 139.413 176.384 139.702C176.312 140.424 176.384 141.074 176.384 141.94L177.973 142.373L175.157 144.539L182.666 143.24C183.027 142.518 183.171 142.084 183.316 141.723Z" fill="#130160"/>
<path d="M247.574 103.819C246.274 105.408 244.614 106.635 243.025 108.151C245.047 110.101 247.574 110.389 250.751 110.245C249.884 109.667 249.162 109.379 248.874 108.873C248.585 108.368 248.296 107.357 248.585 106.996C249.957 105.335 251.689 103.964 253.711 103.025C253.061 102.52 252.411 102.014 251.689 101.509C250.029 101.798 248.657 102.592 247.574 103.819Z" fill="#130160"/>
<path d="M152.631 131.615C153.353 131.832 154.148 131.832 154.87 131.615C156.025 131.326 157.18 130.821 158.119 130.099C158.841 129.521 160.501 129.016 159.707 127.644C159.129 126.633 157.902 125.911 156.963 125.045L156.819 125.695L151.043 127.067L149.671 125.189L149.888 125.839L147.361 127.283L147.65 127.572H150.321L147.866 128.872L150.61 129.666C149.816 130.243 149.455 130.532 149.238 130.677C150.465 130.965 151.548 131.399 152.631 131.615Z" fill="#130160"/>
<path d="M201.943 99.9203C203.171 98.9095 204.182 98.0431 205.265 97.3211C205.698 97.1045 206.131 97.1045 206.564 97.3211C206.853 97.5377 206.925 98.1153 207.214 98.6207H210.896C210.896 98.4041 210.968 98.1875 210.968 97.9709L200.644 93.8555C201.077 94.8663 201.221 95.1551 201.294 95.2273L195.157 94.7219L195.012 95.3717C195.879 96.0215 196.673 96.8879 197.684 97.1767C198.694 97.4655 199.705 96.9601 200.716 96.7435L200.788 97.2489L198.478 98.1153L198.55 98.4041L200.427 98.5485L199.2 99.1983L201.943 99.9203Z" fill="#130160"/>
<path d="M174.652 138.259C175.518 137.753 175.663 136.959 174.796 136.526C173.93 136.093 172.919 135.299 171.908 136.454C171.403 137.104 170.753 137.609 169.959 138.259V141.219L169.309 141.508C169.67 141.797 170.031 142.302 170.32 142.23C171.692 141.869 172.991 141.436 174.291 140.786C174.58 140.641 174.363 139.414 174.435 138.764C174.435 138.692 174.435 138.331 174.652 138.259Z" fill="#130160"/>
<path d="M86.3513 198.256C86.0625 198.111 85.8459 198.039 85.5571 197.967L85.7015 199.266C86.4957 199.555 87.2177 199.844 87.9397 200.205C88.6617 200.566 89.1671 201.505 89.9613 202.443L93.4269 202.082C90.8277 200.638 88.5895 199.411 86.3513 198.256Z" fill="#130160"/>
<path d="M99.9975 204.61C100.142 202.877 97.1095 201.866 94.3659 202.588L95.8099 204.249L92.9219 203.96C95.2323 205.548 97.6871 204.393 99.9975 204.61Z" fill="#130160"/>
<path d="M213.929 93.9268H204.254C205.554 94.5766 206.853 95.0098 208.297 95.2986C210.174 95.2986 212.052 95.2264 213.929 95.0098V93.9268Z" fill="#130160"/>
<path d="M278.548 220.782C279.125 220.566 279.847 219.483 279.703 219.122C279.197 217.894 278.548 216.739 277.753 215.656L277.176 215.945C277.176 217.1 277.176 218.255 277.176 219.411C277.176 220.494 277.537 221.216 278.548 220.782Z" fill="#130160"/>
<path d="M193.207 159.918L191.98 160.423V163.672C194.146 163.6 193.135 161.795 193.568 160.857C193.641 160.712 193.352 160.279 193.207 159.918Z" fill="#130160"/>
<path d="M200.138 165.188H196.745L196.673 165.622L199.777 167.499C199.922 166.632 200.066 165.91 200.138 165.188Z" fill="#130160"/>
<path d="M331.326 94.6494C331.47 94.2162 331.47 93.7108 331.47 93.2776C331.47 89.3788 327.571 86.202 322.734 86.202C321.434 86.202 320.135 86.4186 318.98 86.924C318.98 86.8518 318.98 86.7796 318.98 86.7074C318.98 82.8086 315.081 79.6318 310.243 79.6318C306.633 79.6318 303.601 81.3646 302.229 83.8916C301.291 83.7472 300.28 83.675 299.341 83.675C291.616 83.675 285.334 88.5846 284.829 94.7216C280.28 94.7938 276.598 97.754 276.598 101.508C276.598 105.263 280.353 108.295 284.901 108.295H308.872" fill="#99ABC6" fill-opacity="0.64"/>
<path d="M308.872 108.584H284.901C279.992 108.584 276.093 105.335 276.093 101.291C276.093 97.4647 279.775 94.2879 284.396 94.0713C285.19 87.8621 291.616 83.0247 299.341 83.0247C300.208 83.0247 301.074 83.0969 301.94 83.2413C303.529 80.6421 306.706 79.0537 310.243 79.0537C315.153 79.0537 319.196 82.2305 319.485 86.2015C320.568 85.8405 321.651 85.6961 322.734 85.6961C327.86 85.6961 331.976 89.0895 331.976 93.2771C331.976 93.7825 331.903 94.2879 331.759 94.7933C331.687 95.0821 331.398 95.2265 331.181 95.1543C330.893 95.0821 330.748 94.7933 330.82 94.5767C330.893 94.1435 330.965 93.7103 330.965 93.3493C330.965 89.7393 327.283 86.7791 322.734 86.7791C321.507 86.7791 320.279 86.9957 319.124 87.4289C318.98 87.5011 318.763 87.5011 318.619 87.3567C318.474 87.2845 318.402 87.0679 318.402 86.9235V86.7791C318.402 83.0247 314.72 80.0645 310.171 80.0645C306.922 80.0645 303.89 81.6529 302.59 84.0355C302.518 84.2521 302.301 84.3243 302.085 84.3243C301.146 84.1799 300.208 84.1077 299.269 84.1077C291.905 84.1077 285.695 88.7285 285.262 94.7211C285.262 95.0099 285.046 95.1543 284.757 95.1543C280.497 95.2265 277.031 97.9701 277.031 101.436C277.031 104.901 280.569 107.717 284.901 107.717H308.872C309.16 107.717 309.377 107.934 309.377 108.223C309.377 108.511 309.088 108.656 308.872 108.584C308.799 108.656 308.799 108.656 308.872 108.584Z" fill="#D1D3D4"/>
<path d="M312.653 273.928C312.653 268.669 307.452 264.392 300.979 264.334C300.285 255.607 291.326 248.671 280.403 248.671C279.016 248.671 277.629 248.787 276.299 249.018C274.392 245.492 270 242.949 264.913 242.949C258.036 242.949 252.487 247.457 252.487 253.006C252.487 253.121 252.487 253.237 252.487 253.353C250.753 252.717 248.962 252.37 247.112 252.37C240.234 252.37 234.686 256.878 234.686 262.484C234.686 263.12 234.744 263.814 234.917 264.45C229.08 265.028 224.514 269.073 224.514 273.986C224.514 279.303 229.831 283.58 236.362 283.58" fill="#99ABC6" fill-opacity="0.64"/>
<path d="M236.362 283.927C229.6 283.927 224.109 279.419 224.109 273.928C224.109 269.016 228.501 264.797 234.397 264.045C234.281 263.525 234.223 263.005 234.223 262.427C234.223 256.647 240.003 251.966 247.054 251.966C248.73 251.966 250.406 252.255 251.967 252.775C252.14 247.111 257.804 242.545 264.798 242.545C269.768 242.545 274.276 244.915 276.415 248.556C277.686 248.382 279.016 248.267 280.287 248.267C291.211 248.267 300.343 255.145 301.267 263.93C307.741 264.161 313 268.553 313 273.928C313 274.16 312.827 274.333 312.595 274.333C312.364 274.333 312.191 274.16 312.191 273.928C312.191 268.958 307.105 264.797 300.921 264.739C300.689 264.739 300.516 264.565 300.516 264.392C299.822 255.78 290.98 249.076 280.287 249.076C278.958 249.076 277.571 249.192 276.241 249.423C276.068 249.423 275.895 249.365 275.837 249.192C273.93 245.666 269.595 243.354 264.798 243.354C258.151 243.354 252.776 247.689 252.776 253.006C252.776 253.064 252.776 253.122 252.776 253.179V253.353C252.776 253.468 252.718 253.642 252.603 253.7C252.487 253.757 252.371 253.815 252.198 253.757C250.522 253.122 248.788 252.775 246.996 252.775C240.35 252.775 234.975 257.11 234.975 262.485C234.975 263.12 235.032 263.756 235.206 264.334C235.206 264.45 235.206 264.565 235.148 264.681C235.09 264.797 234.975 264.854 234.859 264.854C229.137 265.432 224.802 269.363 224.802 273.986C224.802 279.072 229.946 283.176 236.246 283.176C236.477 283.176 236.651 283.349 236.651 283.58C236.766 283.754 236.593 283.927 236.362 283.927Z" fill="#D1D3D4"/>
<path d="M200.067 197.028H199.995C199.706 196.956 199.561 196.74 199.634 196.451C199.706 196.162 205.915 167.643 237.394 153.708C247.791 149.088 256.888 148.438 264.541 151.759C275.227 156.38 279.126 167.426 279.126 167.499C279.198 167.787 279.054 168.076 278.765 168.148C278.548 168.221 278.259 168.076 278.187 167.86C278.187 167.787 274.361 157.174 264.108 152.698C256.744 149.521 247.863 150.171 237.755 154.647C206.781 168.365 200.644 196.451 200.572 196.667C200.572 196.884 200.356 197.028 200.067 197.028Z" fill="#FFACAC"/>
<path d="M124.329 231.974C124.257 231.974 124.184 231.974 124.112 231.901C123.896 231.757 123.751 231.468 123.896 231.252C145.339 189.881 181.511 203.527 181.8 203.671C182.089 203.743 182.161 204.032 182.089 204.321C182.017 204.61 181.728 204.682 181.439 204.61C181.078 204.465 145.772 191.181 124.762 231.757C124.69 231.829 124.473 231.974 124.329 231.974Z" fill="#FFACAC"/>
<path d="M179.778 146.056C179.562 146.056 179.345 145.911 179.345 145.695C179.201 145.406 167.721 115.371 139.13 111.689C138.841 111.616 138.624 111.4 138.697 111.111C138.769 110.822 138.985 110.678 139.274 110.678C168.443 114.432 180.139 144.973 180.284 145.262C180.356 145.55 180.284 145.839 179.995 145.911C179.923 146.056 179.851 146.056 179.778 146.056Z" fill="#FFACAC"/>
<path d="M187.936 204.104L184.326 196.884C180.5 189.231 176.745 181.505 172.919 173.852C171.403 171.109 170.681 168.076 170.608 164.972C170.825 155.369 178.767 147.86 188.37 148.077C196.095 148.293 202.737 153.492 204.687 160.928C205.77 164.972 205.264 169.231 203.387 172.914L193.857 192.191L188.225 203.526L187.936 204.104ZM187.936 173.852C192.702 173.852 196.6 169.953 196.6 165.188C196.6 160.423 192.702 156.524 187.936 156.524C183.171 156.524 179.272 160.423 179.272 165.188C179.272 169.953 183.171 173.78 187.936 173.852Z" fill="#E30000"/>
<path d="M284.252 170.458C283.169 168.22 282.086 166.126 281.075 164.032C277.682 157.245 274.36 150.386 270.967 143.6C269.667 141.145 268.945 138.473 268.945 135.73C269.09 127.282 276.021 120.496 284.541 120.64C291.472 120.712 297.464 125.477 299.197 132.192C300.136 135.73 299.703 139.556 298.042 142.805L289.522 159.917C287.862 163.238 286.201 166.631 284.541 169.953C284.468 170.097 284.396 170.241 284.252 170.458ZM284.252 143.6C288.512 143.6 291.905 140.206 291.977 135.946C291.977 131.687 288.584 128.293 284.324 128.221C280.064 128.221 276.671 131.614 276.599 135.874C276.599 140.206 279.992 143.6 284.252 143.6Z" fill="#E30000"/>
<path d="M131.693 111.255L129.021 105.912C126.206 100.208 123.39 94.5044 120.502 88.8006C119.419 86.779 118.841 84.4686 118.769 82.1582C118.913 75.0826 124.762 69.3788 131.837 69.5232C137.613 69.5954 142.667 73.5664 144.111 79.198C144.905 82.1582 144.544 85.335 143.1 88.0786L136.025 102.374C134.653 105.19 133.209 108.006 131.837 110.749L131.693 111.255ZM131.693 88.7284C135.231 88.7284 138.119 85.8404 138.119 82.3026C138.119 78.7648 135.231 75.8768 131.693 75.8768C128.155 75.8768 125.267 78.7648 125.267 82.3026C125.339 85.8404 128.155 88.7284 131.693 88.7284Z" fill="#E30000"/>
<path d="M118.841 232.912C117.902 231.107 117.036 229.302 116.169 227.497C113.354 221.793 110.538 216.089 107.65 210.386C106.567 208.364 105.989 206.054 105.917 203.743C106.061 196.668 111.91 190.964 118.985 191.108C124.761 191.18 129.815 195.151 131.259 200.783C132.053 203.743 131.692 206.92 130.321 209.736C127.938 214.501 125.555 219.266 123.173 224.104C121.801 226.919 120.429 229.735 118.985 232.479C118.985 232.623 118.913 232.768 118.841 232.912ZM118.841 210.458C122.379 210.458 125.267 207.57 125.267 204.032C125.267 200.494 122.379 197.606 118.841 197.606C115.303 197.606 112.415 200.494 112.415 204.032C112.415 207.498 115.303 210.386 118.841 210.458Z" fill="#E30000"/>
</svg>
