<svg width="180" height="138" viewBox="0 0 180 138" fill="none" xmlns="http://www.w3.org/2000/svg">
<path fill-rule="evenodd" clip-rule="evenodd" d="M66.4123 9.96171C59.0657 13.0079 52.3904 17.4728 46.7676 23.1014L64.6572 41.0095C71.0367 34.6234 79.85 30.6735 89.5848 30.6734V5.34766C81.6329 5.34766 73.7589 6.91551 66.4123 9.96171Z" fill="#FFBB36"/>
<path fill-rule="evenodd" clip-rule="evenodd" d="M46.7672 23.1016C35.4114 34.4691 29.0317 49.8868 29.0317 65.9629H54.3311C54.3311 65.9627 54.3311 65.9625 54.3311 65.9623C54.3311 56.2175 58.2768 47.3952 64.6563 41.009L46.7672 23.1016Z" fill="#E2635E"/>
<path fill-rule="evenodd" clip-rule="evenodd" d="M54.3311 65.9629L29.0317 65.9629C29.0317 73.923 30.598 81.8051 33.641 89.1593C36.6841 96.5135 41.1444 103.196 46.7672 108.824L64.6564 90.9166C58.2769 84.5305 54.3311 75.7081 54.3311 65.9632C54.3311 65.9631 54.3311 65.963 54.3311 65.9629Z" fill="#59C3CF"/>
<path fill-rule="evenodd" clip-rule="evenodd" d="M89.5848 101.254C89.5848 101.254 89.5848 101.254 89.5848 101.254C79.85 101.254 71.0368 97.3039 64.6572 90.918L46.7676 108.826C52.3904 114.455 59.0657 118.92 66.4123 121.966C73.7589 125.012 81.6329 126.58 89.5848 126.58V101.254Z" fill="#6F19C2"/>
<path fill-rule="evenodd" clip-rule="evenodd" d="M114.512 90.918C108.133 97.304 99.3197 101.254 89.585 101.254L89.585 126.58C105.645 126.58 121.046 120.194 132.402 108.826L114.512 90.918Z" fill="#6F19C2"/>
<path fill-rule="evenodd" clip-rule="evenodd" d="M114.489 90.8361L132.362 108.727C143.707 97.3701 150.08 81.9671 150.08 65.9062H124.805C124.805 75.642 120.863 84.456 114.489 90.8361Z" fill="#4887F6"/>
<path fill-rule="evenodd" clip-rule="evenodd" d="M150.081 65.9065C150.081 49.8457 143.707 34.4427 132.362 23.0859L114.49 40.9767C120.863 47.3568 124.805 56.1708 124.805 65.9064C124.805 65.9065 124.805 65.9065 124.805 65.9066L150.081 65.9065Z" fill="#4887F6"/>
<path fill-rule="evenodd" clip-rule="evenodd" d="M132.361 23.0845C121.016 11.7278 105.629 5.34766 89.585 5.34766V30.649C89.585 30.649 89.5851 30.649 89.5851 30.649C99.3108 30.649 108.116 34.5951 114.489 40.9752L132.361 23.0845Z" fill="#4887F6"/>
</svg>
