<svg width="27" height="27" viewBox="0 0 27 27" fill="none" xmlns="http://www.w3.org/2000/svg">
<path d="M13.5609 3.45167L13.5 3.42461L13.4391 3.45167L5.5641 6.95042L5.475 6.99V7.0875V12.375C5.475 17.5208 8.86575 22.2738 13.4558 23.6896L13.5 23.7032L13.5442 23.6896C18.1343 22.2738 21.525 17.5208 21.525 12.375V7.0875V6.99L21.4359 6.95042L13.5609 3.45167ZM3.525 5.72248L13.5 1.28915L23.475 5.72248V12.375C23.475 18.543 19.2141 24.3057 13.5 25.7205C7.78591 24.3057 3.525 18.543 3.525 12.375V5.72248ZM14.475 8.025V9.975H12.525V8.025H14.475ZM14.475 12.525V18.975H12.525V12.525H14.475Z" fill="#14BA9C" stroke="#FAFAFD" stroke-width="0.3"/>
</svg>
