<svg width="27" height="27" viewBox="0 0 27 27" fill="none" xmlns="http://www.w3.org/2000/svg">
<path d="M17.85 10.125C17.85 11.2787 17.3917 12.3851 16.5759 13.2009C15.7601 14.0167 14.6537 14.475 13.5 14.475C12.3463 14.475 11.2399 14.0167 10.4241 13.2009C9.6083 12.3851 9.15 11.2787 9.15 10.125C9.15 8.97131 9.6083 7.86487 10.4241 7.04909C11.2399 6.2333 12.3463 5.775 13.5 5.775C14.6537 5.775 15.7601 6.2333 16.5759 7.04909C17.3917 7.86487 17.85 8.97131 17.85 10.125ZM15.1971 11.8221C15.6471 11.372 15.9 10.7615 15.9 10.125C15.9 9.48848 15.6471 8.87803 15.1971 8.42794C14.747 7.97786 14.1365 7.725 13.5 7.725C12.8635 7.725 12.253 7.97786 11.8029 8.42794C11.3529 8.87803 11.1 9.48848 11.1 10.125C11.1 10.7615 11.3529 11.372 11.8029 11.8221C12.253 12.2721 12.8635 12.525 13.5 12.525C14.1365 12.525 14.747 12.2721 15.1971 11.8221Z" fill="#14BA9C" stroke="#FAFAFD" stroke-width="0.3"/>
<path d="M13.5732 17.85C12.2821 17.8491 11.0098 18.1601 9.86468 18.7565C8.71954 19.3529 7.73541 20.2171 6.99603 21.2756L6.91623 21.3898L7.0243 21.4778C8.85361 22.967 11.1412 23.7785 13.5 23.775C15.9005 23.7783 18.2258 22.9377 20.0693 21.4002L20.1763 21.3109L20.0952 21.1976C19.3527 20.1611 18.3736 19.3166 17.2393 18.7344C16.105 18.1522 14.8482 17.849 13.5732 17.85ZM13.5732 17.85L13.5731 18L13.573 17.85C13.5731 17.85 13.5732 17.85 13.5732 17.85ZM3.225 13.5V13.5C3.225 15.886 4.03909 18.0827 5.40334 19.8272L5.52308 19.9803L5.64084 19.8256C6.57096 18.6042 7.77089 17.6143 9.14689 16.9333C10.5229 16.2523 12.0377 15.8987 13.573 15.9L13.5733 15.9C15.0887 15.8986 16.5844 16.243 17.9466 16.9072C19.3087 17.5714 20.5012 18.5377 21.4334 19.7325L21.553 19.8859L21.6709 19.7312C22.6601 18.4338 23.3261 16.9195 23.6139 15.3136C23.9017 13.7077 23.8029 12.0564 23.3257 10.4962C22.8486 8.93609 22.0068 7.51199 20.87 6.34177C19.7332 5.17155 18.3341 4.28885 16.7884 3.76671C15.2428 3.24457 13.595 3.098 11.9814 3.33912C10.3679 3.58024 8.83491 4.20212 7.50941 5.15332C6.18391 6.10451 5.10397 7.35767 4.35894 8.8091C3.61391 10.2605 3.22521 11.8685 3.225 13.5ZM1.275 13.5C1.275 6.74847 6.74847 1.275 13.5 1.275C20.2515 1.275 25.725 6.74847 25.725 13.5C25.725 20.2515 20.2515 25.725 13.5 25.725C6.74847 25.725 1.275 20.2515 1.275 13.5Z" fill="#14BA9C" stroke="#FAFAFD" stroke-width="0.3"/>
</svg>
