<svg width="16" height="21" viewBox="0 0 16 21" fill="none" xmlns="http://www.w3.org/2000/svg">
<path d="M11.9 5.90625V5.90628C11.9 6.03604 11.8539 6.16192 11.7692 6.26198C11.6854 6.36098 11.569 6.42852 11.4399 6.45279L11.329 6.4625L4.66667 6.4625L4.66649 6.4625C4.52441 6.46276 4.38765 6.41063 4.28308 6.31678C4.17855 6.22298 4.11379 6.09435 4.10108 5.95637C4.08836 5.8184 4.12855 5.68056 4.21407 5.56995C4.29877 5.46042 4.42196 5.38538 4.56 5.35971L4.67103 5.35H11.3333C11.4841 5.35 11.6284 5.40898 11.7346 5.51348C11.8407 5.61792 11.9 5.75924 11.9 5.90625ZM11.9 10.5V10.5C11.9 10.6298 11.8539 10.7557 11.7692 10.8557C11.6853 10.9547 11.569 11.0223 11.4399 11.0465L11.329 11.0562H4.66667L4.66649 11.0563C4.52441 11.0565 4.38765 11.0044 4.28308 10.9105C4.17855 10.8167 4.11379 10.6881 4.10108 10.5501C4.08836 10.4122 4.12855 10.2743 4.21407 10.1637C4.29877 10.0542 4.42196 9.97913 4.56001 9.95347L4.67103 9.94375H11.3333C11.4841 9.94375 11.6284 10.0027 11.7346 10.1072C11.8407 10.2117 11.9 10.353 11.9 10.5ZM11.9 15.0938V15.0938C11.9 15.2235 11.8539 15.3494 11.7692 15.4495C11.6853 15.5485 11.569 15.616 11.4399 15.6403L11.329 15.65H4.66667L4.66649 15.65C4.52441 15.6503 4.38765 15.5981 4.28308 15.5043C4.17855 15.4105 4.11379 15.2818 4.10108 15.1439C4.08836 15.0059 4.12855 14.8681 4.21407 14.7575C4.29877 14.6479 4.42196 14.5729 4.56001 14.5472L4.67103 14.5375H11.3333C11.4841 14.5375 11.6284 14.5965 11.7346 14.701C11.8407 14.8054 11.9 14.9467 11.9 15.0938ZM2.66667 0.1H13.3333C14.0146 0.1 14.6676 0.366402 15.1488 0.84011C15.63 1.31376 15.9 1.95584 15.9 2.625V18.375C15.9 19.0442 15.63 19.6862 15.1488 20.1599C14.6676 20.6336 14.0146 20.9 13.3333 20.9H2.66667C1.98544 20.9 1.33243 20.6336 0.8512 20.1599C0.370027 19.6862 0.1 19.0442 0.1 18.375V2.625C0.1 1.95584 0.370027 1.31376 0.8512 0.84011C1.33243 0.366402 1.98544 0.1 2.66667 0.1ZM2.66667 1.2125C2.28703 1.2125 1.92262 1.36094 1.65371 1.62566C1.38473 1.89043 1.23333 2.24987 1.23333 2.625V18.375C1.23333 18.7501 1.38473 19.1096 1.65371 19.3743C1.92263 19.6391 2.28703 19.7875 2.66667 19.7875H13.3333C13.713 19.7875 14.0774 19.6391 14.3463 19.3743C14.6153 19.1096 14.7667 18.7501 14.7667 18.375V2.625C14.7667 2.24987 14.6153 1.89043 14.3463 1.62566C14.0774 1.36094 13.713 1.2125 13.3333 1.2125H2.66667Z" fill="#14BA9C" stroke="white" stroke-width="0.2"/>
</svg>
