<svg width="33" height="33" viewBox="0 0 33 33" fill="none" xmlns="http://www.w3.org/2000/svg">
<mask id="path-1-inside-1_1113_3983" fill="white">
<path fill-rule="evenodd" clip-rule="evenodd" d="M16.4979 2.74023C14.2198 2.74023 12.3729 4.58706 12.3729 6.86523V7.79164C11.9004 8.01613 11.4491 8.27798 11.0228 8.57339L10.2248 8.11267C8.25185 6.97358 5.72904 7.64956 4.58996 9.62252C3.45087 11.5955 4.12685 14.1183 6.09981 15.2574L6.90354 15.7214C6.88349 15.975 6.87328 16.2314 6.87328 16.4902C6.87328 16.7503 6.88359 17.0079 6.90383 17.2627L6.09981 17.7269C4.12685 18.866 3.45087 21.3888 4.58996 23.3618C5.72904 25.3347 8.25185 26.0107 10.2248 24.8716L11.0258 24.4092C11.4512 24.7037 11.9015 24.9649 12.3729 25.1888V26.1152C12.3729 28.3934 14.2198 30.2402 16.4979 30.2402C18.7761 30.2402 20.6229 28.3934 20.6229 26.1152V25.1892C21.0913 24.9667 21.5388 24.7075 21.9618 24.4153L22.7708 24.8824C24.7438 26.0215 27.2666 25.3455 28.4057 23.3725C29.5447 21.3996 28.8688 18.8768 26.8958 17.7377L26.0919 17.2735C26.1127 17.0152 26.1233 16.7539 26.1233 16.4902C26.1233 16.2278 26.1128 15.9678 26.0922 15.7106L26.8958 15.2466C28.8688 14.1076 29.5447 11.5847 28.4057 9.61178C27.2666 7.63883 24.7438 6.96284 22.7708 8.10193L21.9649 8.56723C21.541 8.2742 21.0924 8.01432 20.6229 7.79132V6.86523C20.6229 4.58706 18.7761 2.74023 16.4979 2.74023Z"/>
</mask>
<path d="M12.3729 7.79164L13.0166 9.1465L13.8729 8.73967V7.79164H12.3729ZM11.0228 8.57339L10.2728 9.87242L11.0959 10.3476L11.8771 9.80631L11.0228 8.57339ZM10.2248 8.11267L9.47481 9.4117L10.2248 8.11267ZM4.58996 9.62252L3.29092 8.87252H3.29092L4.58996 9.62252ZM6.09981 15.2574L6.84981 13.9583H6.84981L6.09981 15.2574ZM6.90354 15.7214L8.39888 15.8396L8.47347 14.8958L7.65354 14.4224L6.90354 15.7214ZM6.90383 17.2627L7.65383 18.5618L8.4741 18.0882L8.39912 17.144L6.90383 17.2627ZM6.09981 17.7269L5.34981 16.4279H5.34981L6.09981 17.7269ZM4.58996 23.3618L5.88899 22.6118L4.58996 23.3618ZM10.2248 24.8716L9.47481 23.5726H9.47481L10.2248 24.8716ZM11.0258 24.4092L11.8797 23.1759L11.0986 22.6351L10.2758 23.1101L11.0258 24.4092ZM12.3729 25.1888H13.8729V24.2408L13.0166 23.834L12.3729 25.1888ZM20.6229 25.1892L19.9794 23.8342L19.1229 24.241V25.1892H20.6229ZM21.9618 24.4153L22.7118 23.1163L21.8901 22.6419L21.1094 23.1811L21.9618 24.4153ZM22.7708 24.8824L23.5208 23.5833H23.5208L22.7708 24.8824ZM28.4057 23.3725L29.7047 24.1225L28.4057 23.3725ZM26.8958 17.7377L27.6458 16.4386H27.6458L26.8958 17.7377ZM26.0919 17.2735L24.5967 17.1531L24.5206 18.0984L25.3419 18.5726L26.0919 17.2735ZM26.0922 15.7106L25.3422 14.4116L24.5212 14.8856L24.597 15.8305L26.0922 15.7106ZM26.8958 15.2466L26.1458 13.9476H26.1458L26.8958 15.2466ZM22.7708 8.10193L22.0208 6.80289L22.7708 8.10193ZM21.9649 8.56723L21.1119 9.80112L21.8928 10.3409L22.7149 9.86627L21.9649 8.56723ZM20.6229 7.79132H19.1229V8.73944L19.9794 9.14623L20.6229 7.79132ZM13.8729 6.86523C13.8729 5.41549 15.0482 4.24023 16.4979 4.24023V1.24023C13.3913 1.24023 10.8729 3.75863 10.8729 6.86523H13.8729ZM13.8729 7.79164V6.86523H10.8729V7.79164H13.8729ZM11.8771 9.80631C12.2372 9.55683 12.6181 9.33584 13.0166 9.1465L11.7293 6.43677C11.1828 6.69641 10.661 6.99914 10.1685 7.34046L11.8771 9.80631ZM9.47481 9.4117L10.2728 9.87242L11.7728 7.27435L10.9748 6.81363L9.47481 9.4117ZM5.88899 10.3725C6.61387 9.117 8.21929 8.68683 9.47481 9.4117L10.9748 6.81363C8.28442 5.26033 4.84422 6.18213 3.29092 8.87252L5.88899 10.3725ZM6.84981 13.9583C5.59429 13.2335 5.16412 11.628 5.88899 10.3725L3.29092 8.87252C1.73762 11.5629 2.65942 15.0031 5.34981 16.5564L6.84981 13.9583ZM7.65354 14.4224L6.84981 13.9583L5.34981 16.5564L6.15354 17.0204L7.65354 14.4224ZM8.37328 16.4902C8.37328 16.2709 8.38194 16.054 8.39888 15.8396L5.4082 15.6032C5.38505 15.8961 5.37328 16.192 5.37328 16.4902H8.37328ZM8.39912 17.144C8.38202 16.9286 8.37328 16.7106 8.37328 16.4902H5.37328C5.37328 16.7899 5.38517 17.0872 5.40854 17.3815L8.39912 17.144ZM6.84981 19.026L7.65383 18.5618L6.15383 15.9637L5.34981 16.4279L6.84981 19.026ZM5.88899 22.6118C5.16412 21.3563 5.59429 19.7508 6.84981 19.026L5.34981 16.4279C2.65941 17.9812 1.73762 21.4214 3.29092 24.1118L5.88899 22.6118ZM9.47481 23.5726C8.21929 24.2975 6.61387 23.8673 5.88899 22.6118L3.29092 24.1118C4.84422 26.8022 8.28441 27.724 10.9748 26.1707L9.47481 23.5726ZM10.2758 23.1101L9.47481 23.5726L10.9748 26.1707L11.7758 25.7082L10.2758 23.1101ZM13.0166 23.834C12.619 23.6451 12.239 23.4247 11.8797 23.1759L10.172 25.6424C10.6635 25.9828 11.1841 26.2847 11.7293 26.5437L13.0166 23.834ZM13.8729 26.1152V25.1888H10.8729V26.1152H13.8729ZM16.4979 28.7402C15.0482 28.7402 13.8729 27.565 13.8729 26.1152H10.8729C10.8729 29.2218 13.3913 31.7402 16.4979 31.7402V28.7402ZM19.1229 26.1152C19.1229 27.565 17.9477 28.7402 16.4979 28.7402V31.7402C19.6045 31.7402 22.1229 29.2218 22.1229 26.1152H19.1229ZM19.1229 25.1892V26.1152H22.1229V25.1892H19.1229ZM21.1094 23.1811C20.7521 23.4279 20.3744 23.6466 19.9794 23.8342L21.2665 26.5441C21.8082 26.2868 22.3256 25.9871 22.8143 25.6495L21.1094 23.1811ZM23.5208 23.5833L22.7118 23.1163L21.2118 25.7144L22.0208 26.1814L23.5208 23.5833ZM27.1066 22.6225C26.3817 23.878 24.7763 24.3082 23.5208 23.5833L22.0208 26.1814C24.7112 27.7347 28.1514 26.8129 29.7047 24.1225L27.1066 22.6225ZM26.1458 19.0367C27.4013 19.7616 27.8315 21.367 27.1066 22.6225L29.7047 24.1225C31.258 21.4321 30.3362 17.9919 27.6458 16.4386L26.1458 19.0367ZM25.3419 18.5726L26.1458 19.0367L27.6458 16.4386L26.8419 15.9745L25.3419 18.5726ZM24.6233 16.4902C24.6233 16.7137 24.6143 16.9348 24.5967 17.1531L27.587 17.3939C27.6111 17.0956 27.6233 16.7942 27.6233 16.4902H24.6233ZM24.597 15.8305C24.6144 16.0478 24.6233 16.2678 24.6233 16.4902H27.6233C27.6233 16.1877 27.6112 15.8878 27.5874 15.5908L24.597 15.8305ZM26.1458 13.9476L25.3422 14.4116L26.8422 17.0097L27.6458 16.5457L26.1458 13.9476ZM27.1066 10.3618C27.8315 11.6173 27.4013 13.2227 26.1458 13.9476L27.6458 16.5457C30.3362 14.9924 31.258 11.5522 29.7047 8.86178L27.1066 10.3618ZM23.5208 9.40097C24.7763 8.67609 26.3817 9.10627 27.1066 10.3618L29.7047 8.86178C28.1514 6.17139 24.7112 5.24959 22.0208 6.80289L23.5208 9.40097ZM22.7149 9.86627L23.5208 9.40097L22.0208 6.80289L21.2149 7.26819L22.7149 9.86627ZM19.9794 9.14623C20.3753 9.33432 20.7539 9.55364 21.1119 9.80112L22.8178 7.33335C22.328 6.99477 21.8095 6.69432 21.2665 6.4364L19.9794 9.14623ZM19.1229 6.86523V7.79132H22.1229V6.86523H19.1229ZM16.4979 4.24023C17.9477 4.24023 19.1229 5.41549 19.1229 6.86523H22.1229C22.1229 3.75863 19.6045 1.24023 16.4979 1.24023V4.24023Z" fill="white" mask="url(#path-1-inside-1_1113_3983)"/>
<circle cx="16.5" cy="16.5" r="3.375" stroke="white" stroke-width="1.5"/>
</svg>
