<svg width="34" height="33" viewBox="0 0 34 33" fill="none" xmlns="http://www.w3.org/2000/svg">
<mask id="path-1-inside-1_1113_3863" fill="white">
<path fill-rule="evenodd" clip-rule="evenodd" d="M31.3278 13.5969C31.8868 13.1981 31.8868 12.3675 31.3278 11.9687L18.2756 2.65836C17.6137 2.18619 16.6949 2.65939 16.6949 3.47247V8.24601C9.43802 8.60335 3.66406 14.6003 3.66406 21.9458V30.1758L5.99236 24.5734C7.81643 20.1842 11.9891 17.2534 16.6949 16.9925V22.0932C16.6949 22.9063 17.6137 23.3795 18.2756 22.9073L31.3278 13.5969Z"/>
</mask>
<path d="M31.3278 11.9687L32.1988 10.7476V10.7476L31.3278 11.9687ZM31.3278 13.5969L30.4567 12.3758L31.3278 13.5969ZM18.2756 2.65836L17.4045 3.87952L17.4045 3.87952L18.2756 2.65836ZM16.6949 8.24601L16.7687 9.74419L18.1949 9.67396V8.24601H16.6949ZM3.66406 30.1758H2.16406L5.04921 30.7515L3.66406 30.1758ZM5.99236 24.5734L7.3775 25.149L5.99236 24.5734ZM16.6949 16.9925H18.1949V15.407L16.6119 15.4948L16.6949 16.9925ZM18.2756 22.9073L17.4045 21.6861L17.4045 21.6861L18.2756 22.9073ZM30.4567 13.1899C30.1772 12.9905 30.1772 12.5752 30.4567 12.3758L32.1988 14.8181C33.5965 13.8211 33.5965 11.7445 32.1988 10.7476L30.4567 13.1899ZM17.4045 3.87952L30.4567 13.1899L32.1988 10.7476L19.1467 1.4372L17.4045 3.87952ZM18.1949 3.47247C18.1949 3.879 17.7355 4.1156 17.4045 3.87952L19.1467 1.4372C17.4919 0.256775 15.1949 1.43977 15.1949 3.47247H18.1949ZM18.1949 8.24601V3.47247H15.1949V8.24601H18.1949ZM5.16406 21.9458C5.16406 15.404 10.3066 10.0624 16.7687 9.74419L16.6211 6.74782C8.56943 7.1443 2.16406 13.7966 2.16406 21.9458H5.16406ZM5.16406 30.1758V21.9458H2.16406V30.1758H5.16406ZM4.60721 23.9977L2.27892 29.6002L5.04921 30.7515L7.3775 25.149L4.60721 23.9977ZM16.6119 15.4948C11.3333 15.7875 6.6532 19.0746 4.60721 23.9977L7.3775 25.149C8.97967 21.2938 12.6449 18.7194 16.7779 18.4902L16.6119 15.4948ZM18.1949 22.0932V16.9925H15.1949V22.0932H18.1949ZM17.4045 21.6861C17.7355 21.45 18.1949 21.6866 18.1949 22.0932H15.1949C15.1949 24.1259 17.4918 25.3089 19.1467 24.1284L17.4045 21.6861ZM30.4567 12.3758L17.4045 21.6861L19.1467 24.1284L32.1988 14.8181L30.4567 12.3758Z" fill="#524B6B" mask="url(#path-1-inside-1_1113_3863)"/>
</svg>
