<svg width="29" height="28" viewBox="0 0 29 28" fill="none" xmlns="http://www.w3.org/2000/svg">
<mask id="path-1-inside-1_1759_8362" fill="white">
<path fill-rule="evenodd" clip-rule="evenodd" d="M28.3278 11.136C28.8868 10.7372 28.8868 9.90656 28.3278 9.50778L15.2756 0.197422C14.6137 -0.274748 13.6949 0.198448 13.6949 1.01153V5.78507C6.43802 6.14241 0.664062 12.1394 0.664062 19.4849V27.7149L2.99236 22.1124C4.81643 17.7232 8.98906 14.7925 13.6949 14.5316V19.6322C13.6949 20.4453 14.6137 20.9185 15.2756 20.4463L28.3278 11.136Z"/>
</mask>
<path d="M28.3278 9.50778L29.1988 8.28662L28.3278 9.50778ZM28.3278 11.136L29.1988 12.3571H29.1988L28.3278 11.136ZM15.2756 0.197422L14.4045 1.41858L14.4045 1.41858L15.2756 0.197422ZM13.6949 5.78507L13.7687 7.28325L15.1949 7.21302V5.78507H13.6949ZM0.664062 27.7149H-0.835938L2.04921 28.2905L0.664062 27.7149ZM2.99236 22.1124L4.3775 22.6881L2.99236 22.1124ZM13.6949 14.5316H15.1949V12.9461L13.6119 13.0339L13.6949 14.5316ZM15.2756 20.4463L16.1467 21.6675H16.1467L15.2756 20.4463ZM27.4567 10.7289C27.1772 10.5295 27.1772 10.1142 27.4567 9.91483L29.1988 12.3571C30.5964 11.3602 30.5965 9.28357 29.1988 8.28662L27.4567 10.7289ZM14.4045 1.41858L27.4567 10.7289L29.1988 8.28662L16.1467 -1.02374L14.4045 1.41858ZM15.1949 1.01153C15.1949 1.41806 14.7355 1.65467 14.4045 1.41858L16.1467 -1.02374C14.4919 -2.20416 12.1949 -1.02117 12.1949 1.01153H15.1949ZM15.1949 5.78507V1.01153H12.1949V5.78507H15.1949ZM2.16406 19.4849C2.16406 12.9431 7.3066 7.60146 13.7687 7.28325L13.6211 4.28689C5.56943 4.68337 -0.835938 11.3357 -0.835938 19.4849H2.16406ZM2.16406 27.7149V19.4849H-0.835938V27.7149H2.16406ZM1.60721 21.5368L-0.721084 27.1392L2.04921 28.2905L4.3775 22.6881L1.60721 21.5368ZM13.6119 13.0339C8.33328 13.3265 3.6532 16.6136 1.60721 21.5368L4.3775 22.6881C5.97967 18.8329 9.64485 16.2584 13.7779 16.0293L13.6119 13.0339ZM15.1949 19.6322V14.5316H12.1949V19.6322H15.1949ZM14.4045 19.2252C14.7355 18.9891 15.1949 19.2257 15.1949 19.6322H12.1949C12.1949 21.6649 14.4918 22.8479 16.1467 21.6675L14.4045 19.2252ZM27.4567 9.91483L14.4045 19.2252L16.1467 21.6675L29.1988 12.3571L27.4567 9.91483Z" fill="#99ABC6" fill-opacity="0.58" mask="url(#path-1-inside-1_1759_8362)"/>
</svg>
