<svg width="27" height="27" viewBox="0 0 27 27" fill="none" xmlns="http://www.w3.org/2000/svg">
<path d="M21.9375 16.4534C21.9375 15.7821 21.6708 15.1383 21.1961 14.6636C20.7214 14.1889 20.0776 13.9222 19.4062 13.9222H7.59375C6.92242 13.9222 6.27859 14.1889 5.80389 14.6636C5.32918 15.1383 5.0625 15.7821 5.0625 16.4534V17.2972C5.0625 20.6232 8.20125 24.0472 13.5 24.0472C18.7987 24.0472 21.9375 20.6232 21.9375 17.2972V16.4534ZM6.75 16.4534C6.75 16.2296 6.83889 16.015 6.99713 15.8568C7.15536 15.6986 7.36997 15.6097 7.59375 15.6097H19.4062C19.63 15.6097 19.8446 15.6986 20.0029 15.8568C20.1611 16.015 20.25 16.2296 20.25 16.4534V17.2972C20.25 19.7238 17.8335 22.3597 13.5 22.3597C9.1665 22.3597 6.75 19.7238 6.75 17.2972V16.4534ZM18.1406 7.59405C18.1407 6.59361 17.8174 5.61993 17.2191 4.81816C16.6207 4.01639 15.7793 3.42946 14.8201 3.14486C13.861 2.86026 12.8356 2.89323 11.8968 3.23885C10.958 3.58447 10.1559 4.22424 9.61031 5.0628H6.75C6.52622 5.0628 6.31161 5.15169 6.15338 5.30992C5.99515 5.46816 5.90625 5.68277 5.90625 5.90655V9.28155C5.90625 9.30855 5.90625 9.33386 5.90963 9.35917H5.90625V10.969C5.90625 11.6404 6.17293 12.2842 6.64764 12.7589C7.12234 13.2336 7.76617 13.5003 8.4375 13.5003H9.09056C9.26447 13.5002 9.43555 13.4562 9.58797 13.3725C9.74039 13.2888 9.86924 13.1679 9.96261 13.0212C10.056 12.8745 10.1109 12.7066 10.1222 12.5331C10.1335 12.3595 10.1008 12.1859 10.0273 12.0284C9.95372 11.8708 9.84162 11.7343 9.70134 11.6315C9.56107 11.5287 9.39714 11.4629 9.22471 11.4402C9.05229 11.4176 8.87693 11.4388 8.71486 11.5018C8.55278 11.5649 8.40922 11.6678 8.29744 11.801C8.10073 11.7679 7.92212 11.6661 7.79329 11.5138C7.66447 11.3615 7.59378 11.1685 7.59375 10.969V10.1253H8.01562C8.51681 10.1253 8.98425 9.97848 9.37744 9.72705C9.85507 10.6512 10.6293 11.388 11.576 11.8193C12.5226 12.2506 13.5868 12.3513 14.5975 12.1053C15.6083 11.8593 16.507 11.2808 17.1496 10.4627C17.7921 9.64459 18.1411 8.63431 18.1406 7.59405ZM10.5469 7.59405C10.5469 6.81083 10.858 6.05969 11.4118 5.50587C11.9656 4.95205 12.7168 4.64092 13.5 4.64092C14.2832 4.64092 15.0344 4.95205 15.5882 5.50587C16.142 6.05969 16.4531 6.81083 16.4531 7.59405C16.4531 8.37726 16.142 9.1284 15.5882 9.68222C15.0344 10.236 14.2832 10.5472 13.5 10.5472C12.7168 10.5472 11.9656 10.236 11.4118 9.68222C10.858 9.1284 10.5469 8.37726 10.5469 7.59405ZM8.85938 7.59405C8.85938 7.81782 8.77048 8.03243 8.61225 8.19067C8.45401 8.3489 8.2394 8.4378 8.01562 8.4378H7.59375V6.7503H8.85938V7.59405Z" fill="#14BA9C"/>
</svg>
