<svg width="27" height="27" viewBox="0 0 27 27" fill="none" xmlns="http://www.w3.org/2000/svg">
<path d="M8.69455 14.3839C8.20639 13.8957 8.20639 13.1043 8.69454 12.6161L12.6161 8.69455C13.1043 8.20639 13.8957 8.20639 14.3839 8.69454L18.3055 12.6161C18.7936 13.1043 18.7936 13.8957 18.3055 14.3839L14.3839 18.3055C13.8957 18.7936 13.1043 18.7936 12.6161 18.3055L8.69455 14.3839Z" stroke="#14BA9C" stroke-width="1.5"/>
<path d="M13.5 3.325L13.4999 3.325C10.8023 3.32814 8.21614 4.40115 6.30865 6.30864C4.40116 8.21613 3.32815 10.8023 3.32501 13.4999V13.5C3.32501 15.5124 3.92176 17.4797 5.0398 19.1529C6.15785 20.8262 7.74696 22.1304 9.6062 22.9005C11.4654 23.6706 13.5113 23.8721 15.485 23.4795C17.4588 23.0869 19.2718 22.1178 20.6948 20.6948C22.1178 19.2718 23.0869 17.4588 23.4795 15.485C23.8721 13.5113 23.6706 11.4654 22.9005 9.6062C22.1304 7.74696 20.8262 6.15784 19.1529 5.0398C17.4797 3.92175 15.5124 3.325 13.5 3.325ZM6.96511 3.71984C8.89944 2.42736 11.1736 1.7375 13.5 1.7375C16.6196 1.7375 19.6115 2.97676 21.8173 5.18266C24.0232 7.38855 25.2625 10.3804 25.2625 13.5C25.2625 15.8264 24.5726 18.1006 23.2802 20.0349C21.9877 21.9692 20.1506 23.4769 18.0013 24.3671C15.852 25.2574 13.487 25.4903 11.2053 25.0365C8.92355 24.5826 6.82768 23.4624 5.18266 21.8173C3.53765 20.1723 2.41738 18.0765 1.96352 15.7947C1.50966 13.513 1.7426 11.148 2.63287 8.99869C3.52315 6.84937 5.03078 5.01232 6.96511 3.71984Z" fill="#14BA9C" stroke="#FAFAFD" stroke-width="0.1"/>
</svg>
