<svg width="38" height="34" viewBox="0 0 38 34" fill="none" xmlns="http://www.w3.org/2000/svg">
<path d="M37.3415 10.3078L19.9251 1.01905C19.7571 0.929597 19.5697 0.882812 19.3794 0.882812C19.1891 0.882812 19.0017 0.929597 18.8337 1.01905L1.41726 10.3078C1.23149 10.4068 1.07613 10.5544 0.967804 10.7349C0.859473 10.9154 0.802246 11.122 0.802246 11.3325C0.802246 11.543 0.859473 11.7495 0.967804 11.93C1.07613 12.1105 1.23149 12.2581 1.41726 12.3571L5.44626 14.5066V21.5341C5.44505 22.1045 5.65495 22.6551 6.03552 23.0798C7.93681 25.1974 12.1966 28.7489 19.3794 28.7489C21.761 28.7686 24.1248 28.3372 26.346 27.4775V32.2322C26.346 32.5401 26.4683 32.8354 26.686 33.0532C26.9038 33.2709 27.1991 33.3933 27.507 33.3933C27.815 33.3933 28.1103 33.2709 28.3281 33.0532C28.5458 32.8354 28.6681 32.5401 28.6681 32.2322V26.3556C30.1822 25.4815 31.5504 24.3763 32.7233 23.0798C33.1038 22.6551 33.3137 22.1045 33.3125 21.5341V14.5066L37.3415 12.3571C37.5273 12.2581 37.6826 12.1105 37.791 11.93C37.8993 11.7495 37.9565 11.543 37.9565 11.3325C37.9565 11.122 37.8993 10.9154 37.791 10.7349C37.6826 10.5544 37.5273 10.4068 37.3415 10.3078ZM19.3794 26.4267C13.0993 26.4267 9.40559 23.3585 7.76845 21.5341V15.7446L18.8337 21.6459C19.0017 21.7353 19.1891 21.7821 19.3794 21.7821C19.5697 21.7821 19.7571 21.7353 19.9251 21.6459L26.346 18.2221V24.9477C24.5172 25.8012 22.2125 26.4267 19.3794 26.4267ZM30.9903 21.5283C30.2943 22.3007 29.5156 22.9942 28.6681 23.5965V16.9826L30.9903 15.7446V21.5283ZM28.0876 14.6619L28.0557 14.643L19.928 10.3078C19.6568 10.1693 19.3421 10.1429 19.0516 10.2342C18.7612 10.3255 18.5182 10.5273 18.375 10.796C18.2319 11.0648 18.2001 11.379 18.2864 11.671C18.3727 11.963 18.5703 12.2094 18.8366 12.3571L25.6203 15.9768L19.3794 19.3048L4.4303 11.3325L19.3794 3.3601L34.3285 11.3325L28.0876 14.6619Z" fill="#14BA9C"/>
</svg>
