<svg width="23" height="23" viewBox="0 0 23 23" fill="none" xmlns="http://www.w3.org/2000/svg">
<path d="M19.4062 0H3.59375C1.60425 0 0 1.61 0 3.59375V19.4062C0 21.39 1.61 23 3.59375 23H19.4062C21.39 23 23 21.39 23 19.4062V3.59375C23 1.61 21.39 0 19.4062 0ZM16.0252 9.131C16.169 12.512 13.7252 16.1747 9.34375 16.1747C8.05 16.1747 6.82525 15.7435 5.75 15.0938C6.969 15.2375 8.2685 14.8752 9.131 14.2312C8.05 14.2312 7.1875 13.5125 6.9 12.5753C7.2565 12.6442 7.61875 12.5752 7.981 12.5062C6.9 12.2188 6.11225 11.2125 6.11225 10.1372C6.46875 10.281 6.831 10.4247 7.19325 10.4247C6.187 9.706 5.82475 8.34325 6.4745 7.26225C7.6935 8.69975 9.4185 9.63125 11.362 9.706C11.0055 8.2685 12.1555 6.831 13.662 6.831C14.306 6.831 14.9558 7.1185 15.387 7.54975C15.962 7.406 16.468 7.26225 16.8935 6.97475C16.7497 7.54975 16.3875 7.981 15.8872 8.2685C16.3932 8.1995 16.8188 8.12475 17.2558 7.912C16.9683 8.418 16.537 8.8435 16.0367 9.131H16.0252Z" fill="#2196F3"/>
</svg>
