<svg width="39" height="38" viewBox="0 0 39 38" fill="none" xmlns="http://www.w3.org/2000/svg">
<path d="M34.4149 31.1666C32.2045 27.3452 28.7981 24.605 24.8228 23.306C26.7892 22.1354 28.3169 20.3517 29.1714 18.2288C30.0259 16.1059 30.16 13.7612 29.5529 11.5548C28.9459 9.34837 27.6313 7.4022 25.8112 6.01517C23.991 4.62815 21.7659 3.87695 19.4774 3.87695C17.189 3.87695 14.9639 4.62815 13.1437 6.01517C11.3235 7.4022 10.009 9.34837 9.40196 11.5548C8.79492 13.7612 8.92894 16.1059 9.78345 18.2288C10.638 20.3517 12.1657 22.1354 14.1321 23.306C10.1568 24.6035 6.7504 27.3437 4.53997 31.1666C4.45891 31.2988 4.40514 31.4459 4.38184 31.5991C4.35854 31.7524 4.36617 31.9088 4.4043 32.0591C4.44242 32.2094 4.51026 32.3506 4.60381 32.4742C4.69737 32.5978 4.81474 32.7015 4.949 32.7791C5.08326 32.8566 5.23169 32.9065 5.38554 32.9257C5.53939 32.945 5.69554 32.9332 5.84478 32.8912C5.99401 32.8491 6.13331 32.7776 6.25445 32.6808C6.37559 32.584 6.47612 32.464 6.55011 32.3277C9.28449 27.6021 14.1175 24.7806 19.4774 24.7806C24.8373 24.7806 29.6704 27.6021 32.4048 32.3277C32.4788 32.464 32.5793 32.584 32.7004 32.6808C32.8216 32.7776 32.9609 32.8491 33.1101 32.8912C33.2593 32.9332 33.4155 32.945 33.5693 32.9257C33.7232 32.9065 33.8716 32.8566 34.0059 32.7791C34.1401 32.7015 34.2575 32.5978 34.3511 32.4742C34.4446 32.3506 34.5125 32.2094 34.5506 32.0591C34.5887 31.9088 34.5963 31.7524 34.573 31.5991C34.5497 31.4459 34.496 31.2988 34.4149 31.1666ZM11.3498 14.3307C11.3498 12.7233 11.8265 11.1519 12.7195 9.81526C13.6126 8.47868 14.882 7.43693 16.3671 6.82177C17.8523 6.20661 19.4865 6.04565 21.0631 6.35926C22.6397 6.67287 24.0879 7.44695 25.2246 8.58363C26.3612 9.7203 27.1353 11.1685 27.4489 12.7451C27.7625 14.3217 27.6016 15.9559 26.9864 17.4411C26.3713 18.9262 25.3295 20.1956 23.9929 21.0887C22.6563 21.9817 21.0849 22.4584 19.4774 22.4584C17.3226 22.4561 15.2566 21.5991 13.7329 20.0753C12.2091 18.5516 11.3521 16.4856 11.3498 14.3307Z" fill="#14BA9C"/>
</svg>
