<svg width="25" height="25" viewBox="0 0 25 25" fill="none" xmlns="http://www.w3.org/2000/svg">
<path d="M12.2583 13.082C14.6543 13.082 16.8333 13.776 18.4363 14.754C19.2363 15.242 19.9203 15.818 20.4143 16.444C20.9003 17.059 21.2583 17.795 21.2583 18.582C21.2583 19.427 20.8473 20.093 20.2553 20.568C19.6953 21.018 18.9563 21.316 18.1713 21.524C16.5933 21.941 14.4873 22.082 12.2583 22.082C10.0293 22.082 7.9233 21.942 6.3453 21.524C5.5603 21.316 4.8213 21.018 4.2613 20.568C3.6683 20.092 3.2583 19.427 3.2583 18.582C3.2583 17.795 3.6163 17.059 4.1023 16.443C4.5963 15.818 5.2793 15.243 6.0803 14.753C7.6833 13.777 9.8633 13.082 12.2583 13.082ZM12.2583 2.08203C13.5844 2.08203 14.8562 2.60882 15.7938 3.5465C16.7315 4.48418 17.2583 5.75595 17.2583 7.08203C17.2583 8.40811 16.7315 9.67988 15.7938 10.6176C14.8562 11.5552 13.5844 12.082 12.2583 12.082C10.9322 12.082 9.66045 11.5552 8.72277 10.6176C7.78508 9.67988 7.2583 8.40811 7.2583 7.08203C7.2583 5.75595 7.78508 4.48418 8.72277 3.5465C9.66045 2.60882 10.9322 2.08203 12.2583 2.08203Z" fill="#293032"/>
</svg>
