<svg width="19" height="22" viewBox="0 0 19 22" fill="none" xmlns="http://www.w3.org/2000/svg">
<path d="M9.2583 11.082C11.6543 11.082 13.8333 11.776 15.4363 12.754C16.2363 13.242 16.9203 13.818 17.4143 14.444C17.9003 15.059 18.2583 15.795 18.2583 16.582C18.2583 17.427 17.8473 18.093 17.2553 18.568C16.6953 19.018 15.9563 19.316 15.1713 19.524C13.5933 19.941 11.4873 20.082 9.2583 20.082C7.0293 20.082 4.9233 19.942 3.3453 19.524C2.5603 19.316 1.8213 19.018 1.2613 18.568C0.668301 18.092 0.258301 17.427 0.258301 16.582C0.258301 15.795 0.616301 15.059 1.1023 14.443C1.5963 13.818 2.2793 13.243 3.0803 12.753C4.6833 11.777 6.8633 11.082 9.2583 11.082ZM9.2583 0.0820312C10.5844 0.0820313 11.8562 0.608815 12.7938 1.5465C13.7315 2.48418 14.2583 3.75595 14.2583 5.08203C14.2583 6.40811 13.7315 7.67988 12.7938 8.61757C11.8562 9.55525 10.5844 10.082 9.2583 10.082C7.93222 10.082 6.66045 9.55525 5.72277 8.61757C4.78508 7.67988 4.2583 6.40811 4.2583 5.08203C4.2583 3.75595 4.78508 2.48418 5.72277 1.5465C6.66045 0.608815 7.93222 0.0820313 9.2583 0.0820312Z" fill="#14BA9C"/>
</svg>
