<svg width="23" height="23" viewBox="0 0 23 23" fill="none" xmlns="http://www.w3.org/2000/svg">
<path d="M19.4062 0H3.59375C1.61 0 0 1.61 0 3.59375V19.4062C0 21.39 1.61 23 3.59375 23H19.4062C21.39 23 23 21.39 23 19.4062V3.59375C23 1.61 21.39 0 19.4062 0ZM11.5 16.8935C10.626 16.8935 9.73475 16.6232 8.89525 16.2035L8.7975 16.1575L8.694 16.1863L6.15825 16.8532L6.81374 14.4613L6.84825 14.3463L6.785 14.2428C6.30775 13.4205 6.03174 12.466 6.03174 11.5115C6.03174 8.51 8.49274 6.049 11.4942 6.049C12.9317 6.049 14.2945 6.59525 15.318 7.61875C16.3472 8.648 16.9567 10.0165 16.9567 11.4425C16.9567 14.444 14.4957 16.905 11.4942 16.905L11.5 16.8935Z" fill="#63B053"/>
<path d="M14.8959 13.5575C14.7662 13.9181 14.2603 14.2164 13.8556 14.3046C13.5806 14.3617 13.2174 14.4084 12.0033 13.9051C10.4468 13.2617 9.44538 11.6818 9.36755 11.5781C9.29232 11.4769 8.73975 10.7401 8.73975 9.98262C8.73975 9.22251 9.12369 8.85153 9.27935 8.69329C9.40906 8.56357 9.61919 8.50391 9.82154 8.50391C9.8864 8.50391 9.94607 8.5065 9.99795 8.50909C10.1536 8.51688 10.2314 8.52466 10.3352 8.77111C10.4623 9.07983 10.7736 9.83735 10.8099 9.91517C10.8489 9.99559 10.8852 10.0994 10.8333 10.2031C10.784 10.3095 10.7399 10.3562 10.6621 10.4444C10.5842 10.5352 10.509 10.6052 10.4312 10.7012C10.3611 10.7842 10.2781 10.875 10.3689 11.0307C10.4597 11.1838 10.771 11.6896 11.2276 12.0969C11.8191 12.6236 12.2964 12.7922 12.4677 12.8622C12.5974 12.9167 12.7478 12.9037 12.8412 12.8052C12.9606 12.6754 13.1058 12.4653 13.2563 12.2552C13.3601 12.1073 13.495 12.0891 13.6351 12.141C13.7778 12.1903 14.5353 12.5639 14.6883 12.6417C14.844 12.7195 14.9478 12.7559 14.9841 12.8233C15.023 12.8882 15.023 13.1969 14.8959 13.5575Z" fill="#63B053"/>
</svg>
